<svg width="273" height="74" viewBox="0 0 273 74" fill="none" xmlns="http://www.w3.org/2000/svg">
<path d="M78.4023 64.7193C75.0078 64.7193 72.7293 62.3478 72.7293 58.8138C72.7293 55.2953 75.0698 52.9238 78.4488 52.9238C79.8438 52.9238 80.8358 53.2338 81.7968 53.8228L81.8278 56.3028H81.1303L80.6033 53.6058L81.3938 53.9158V54.4893C80.4948 53.7608 79.7353 53.4663 78.6193 53.4663C76.0308 53.4663 74.2018 55.4348 74.2018 58.8293C74.2018 62.1153 75.9533 64.1768 78.5418 64.1768C79.5338 64.1768 80.3398 63.9443 81.2078 63.4638L80.6963 63.9133V62.9058C80.6963 61.6038 80.6653 60.3638 80.6343 59.0618H82.0448C82.0138 60.2398 81.9983 61.4333 81.9983 62.9213V63.7118C80.7893 64.4093 79.7508 64.7193 78.4023 64.7193ZM78.8208 59.5268V59.0618H83.1453V59.5268L81.4713 59.6973H80.9753L78.8208 59.5268ZM89.1125 64.7193C86.3845 64.7193 84.0595 62.5493 84.0595 58.8293C84.0595 55.1403 86.3845 52.9238 89.1125 52.9238C91.8715 52.9238 94.1965 55.0938 94.1965 58.8293C94.1965 62.5183 91.8715 64.7193 89.1125 64.7193ZM89.1125 64.1768C91.484 64.1768 92.724 61.7433 92.724 58.8293C92.724 55.9153 91.484 53.4663 89.1125 53.4663C86.7565 53.4663 85.5165 55.9153 85.5165 58.8293C85.5165 61.7433 86.7565 64.1768 89.1125 64.1768ZM97.2773 64.4558V63.9908L99.5558 63.8048H99.9433L102.237 63.9908V64.4558H97.2773ZM99.0443 64.4558C99.0908 62.7508 99.0908 60.9993 99.0908 59.2478V58.3953C99.0908 56.6438 99.0908 54.9078 99.0443 53.1718H100.486C100.455 54.8923 100.455 56.6438 100.455 58.3953V59.2478C100.455 60.9993 100.455 62.7353 100.486 64.4558H99.0443ZM94.9988 56.1168L95.1228 53.1718H104.407L104.547 56.1168H103.88L103.322 53.1718L103.958 53.7298H95.5568L96.2233 53.1718L95.6498 56.1168H94.9988ZM103.721 64.4558V63.9908L105.256 63.8203H105.519L107.193 63.9908V64.4558H103.721ZM104.853 64.4558L108.635 53.0788H109.503L113.347 64.4558H111.952L108.526 54.0088H108.852L108.79 54.2258L105.504 64.4558H104.853ZM106.527 60.6118L106.573 60.1158H111.301L111.347 60.6118H106.527ZM110.03 64.4558V63.9908L112.091 63.8203H112.541L114.571 63.9908V64.4558H110.03ZM115.018 64.4558V63.9908L116.661 63.8048H116.987L118.986 63.9908V64.4558H115.018ZM116.506 64.4558V53.5438H117.049L117.111 59.5113V64.4558H116.506ZM122.086 53.6523V53.1718H126.054V53.6523L124.427 53.8228H124.101L122.086 53.6523ZM123.884 64.5643L116.909 54.3343L116.878 54.3033L116.506 53.7453L114.987 53.6523V53.1718H117.731L124.272 62.8748L123.993 62.9678L123.977 58.3333V53.1718H124.551V64.5643H123.884ZM127.093 64.4558V63.9908L129.232 63.8048H129.418V64.4558H127.093ZM128.689 64.4558C128.72 62.7508 128.72 60.9993 128.72 58.9223V58.4883C128.72 56.6438 128.72 54.9078 128.689 53.1718H130.131C130.1 54.8923 130.1 56.6438 130.1 58.4883V58.9223C130.1 60.9993 130.1 62.7353 130.131 64.4558H128.689ZM129.418 64.4558V63.9443H131.386C134.347 63.9443 135.881 62.0068 135.881 58.8293C135.881 55.4813 134.331 53.6988 131.541 53.6988H129.418V53.1718H131.743C135.23 53.1718 137.338 55.2333 137.338 58.8138C137.338 62.3013 135.137 64.4558 131.51 64.4558H129.418ZM127.093 53.6523V53.1718H129.418V53.8228H129.232L127.093 53.6523ZM137.303 64.4558V63.9908L138.838 63.8203H139.101L140.775 63.9908V64.4558H137.303ZM138.435 64.4558L142.217 53.0788H143.085L146.929 64.4558H145.534L142.108 54.0088H142.434L142.372 54.2258L139.086 64.4558H138.435ZM140.109 60.6118L140.155 60.1158H144.883L144.929 60.6118H140.109ZM143.612 64.4558V63.9908L145.673 63.8203H146.123L148.153 63.9908V64.4558H143.612ZM152.72 64.4558V63.9908L154.859 63.8048H155.045V64.4558H152.72ZM154.316 64.4558C154.347 62.7508 154.347 60.9993 154.347 58.9223V58.4883C154.347 56.6438 154.347 54.9078 154.316 53.1718H155.758C155.727 54.8923 155.727 56.6438 155.727 58.4883V58.9223C155.727 60.9993 155.727 62.7353 155.758 64.4558H154.316ZM155.045 64.4558V63.9443H157.013C159.974 63.9443 161.508 62.0068 161.508 58.8293C161.508 55.4813 159.958 53.6988 157.168 53.6988H155.045V53.1718H157.37C160.857 53.1718 162.965 55.2333 162.965 58.8138C162.965 62.3013 160.764 64.4558 157.137 64.4558H155.045ZM152.72 53.6523V53.1718H155.045V53.8228H154.859L152.72 53.6523ZM164.005 64.4558V63.9908L166.144 63.8048H166.33V64.4558H164.005ZM165.601 64.4558C165.632 62.7508 165.632 60.9993 165.632 59.2478V58.3953C165.632 56.6438 165.632 54.9078 165.601 53.1718H167.043C167.012 54.8923 167.012 56.6438 167.012 58.5813V58.9223C167.012 60.9993 167.012 62.7353 167.043 64.4558H165.601ZM166.33 64.4558V63.9288H172.127L171.445 64.3318L171.956 61.6348H172.623L172.514 64.4558H166.33ZM166.33 58.9998V58.4728H170.05V58.9998H166.33ZM169.941 60.5808L169.74 58.8603V58.5348L169.941 56.8608H170.484V60.5808H169.941ZM164.005 53.6523V53.1718H166.33V53.8228H166.144L164.005 53.6523ZM171.677 55.9618L171.166 53.2958L171.863 53.7298H166.33V53.1718H172.235L172.344 55.9618H171.677ZM173.682 64.4558V63.9908L175.325 63.8048H175.651L177.65 63.9908V64.4558H173.682ZM175.17 64.4558V53.5438H175.713L175.775 59.5113V64.4558H175.17ZM180.75 53.6523V53.1718H184.718V53.6523L183.091 53.8228H182.765L180.75 53.6523ZM182.548 64.5643L175.573 54.3343L175.542 54.3033L175.17 53.7453L173.651 53.6523V53.1718H176.395L182.936 62.8748L182.657 62.9678L182.641 58.3333V53.1718H183.215V64.5643H182.548ZM187.646 64.4558V63.9908L189.924 63.8048H190.312L192.606 63.9908V64.4558H187.646ZM189.413 64.4558C189.459 62.7508 189.459 60.9993 189.459 59.2478V58.3953C189.459 56.6438 189.459 54.9078 189.413 53.1718H190.854C190.823 54.8923 190.823 56.6438 190.823 58.3953V59.2478C190.823 60.9993 190.823 62.7353 190.854 64.4558H189.413ZM185.367 56.1168L185.491 53.1718H194.776L194.915 56.1168H194.249L193.691 53.1718L194.326 53.7298H185.925L186.592 53.1718L186.018 56.1168H185.367ZM194.09 64.4558V63.9908L195.625 63.8203H195.888L197.562 63.9908V64.4558H194.09ZM195.222 64.4558L199.004 53.0788H199.872L203.716 64.4558H202.321L198.895 54.0088H199.221L199.159 54.2258L195.873 64.4558H195.222ZM196.896 60.6118L196.942 60.1158H201.67L201.716 60.6118H196.896ZM200.399 64.4558V63.9908L202.46 63.8203H202.91L204.94 63.9908V64.4558H200.399ZM205.42 64.4558L205.435 63.9908L207.559 63.8048H207.745V64.4558H205.42ZM207.016 64.4558C207.047 62.7508 207.047 60.9993 207.047 59.3718V58.3953C207.047 56.6438 207.047 54.8923 207.016 53.1718H208.458C208.427 54.9078 208.427 56.6438 208.427 58.6123V59.5113C208.427 60.9993 208.427 62.7353 208.458 64.4558H207.016ZM207.745 64.4558V63.9288H213.154L212.519 64.3163L213.061 61.4488H213.728L213.619 64.4558H207.745ZM205.42 53.6523V53.1718H210.101V53.6523L207.915 53.8228H207.559L205.42 53.6523ZM224.498 64.7193C221.15 64.7193 218.825 62.4873 218.825 58.8448C218.825 55.2178 221.259 52.9238 224.498 52.9238C225.754 52.9238 226.699 53.1873 227.707 53.7763L227.738 56.2718H227.04L226.529 53.5748L227.304 53.8383V54.3808C226.436 53.7298 225.692 53.4663 224.7 53.4663C222.127 53.4663 220.298 55.3883 220.298 58.8293C220.298 62.2858 222.127 64.1768 224.638 64.1768C225.63 64.1768 226.513 63.9288 227.397 63.2778V63.7893L226.637 64.0063L227.164 61.3713H227.862L227.831 63.8513C226.792 64.4713 225.754 64.7193 224.498 64.7193ZM229.17 64.4558L229.186 63.9908L231.309 63.8048H231.495V64.4558H229.17ZM230.767 64.4558C230.798 62.7508 230.798 60.9993 230.798 59.3718V58.3953C230.798 56.6438 230.798 54.8923 230.767 53.1718H232.208C232.177 54.9078 232.177 56.6438 232.177 58.6123V59.5113C232.177 60.9993 232.177 62.7353 232.208 64.4558H230.767ZM231.495 64.4558V63.9288H236.905L236.269 64.3163L236.812 61.4488H237.478L237.37 64.4558H231.495ZM229.17 53.6523V53.1718H233.851V53.6523L231.666 53.8228H231.309L229.17 53.6523ZM238.381 64.4558V63.9908L240.52 63.8048H240.861L243.016 63.9908V64.4558H238.381ZM239.978 64.4558C240.009 62.7508 240.009 60.9993 240.009 59.2478V58.3953C240.009 56.6438 240.009 54.9078 239.978 53.1718H241.419C241.388 54.8923 241.388 56.6438 241.388 58.3953V59.2478C241.388 60.9993 241.388 62.7353 241.419 64.4558H239.978ZM238.381 53.6523V53.1718H243.016V53.6523L240.861 53.8228H240.52L238.381 53.6523ZM244.229 64.4558V63.9908L245.872 63.8048H246.197L248.197 63.9908V64.4558H244.229ZM245.717 64.4558V53.5438H246.259L246.321 59.5113V64.4558H245.717ZM251.297 53.6523V53.1718H255.265V53.6523L253.637 53.8228H253.312L251.297 53.6523ZM253.095 64.5643L246.12 54.3343L246.089 54.3033L245.717 53.7453L244.198 53.6523V53.1718H246.941L253.482 62.8748L253.203 62.9678L253.188 58.3333V53.1718H253.761V64.5643H253.095ZM256.304 64.4558V63.9908L258.443 63.8048H258.784L260.938 63.9908V64.4558H256.304ZM257.9 64.4558C257.931 62.7508 257.931 60.9993 257.931 59.2478V58.3953C257.931 56.6438 257.931 54.9078 257.9 53.1718H259.342C259.311 54.8923 259.311 56.6438 259.311 58.3953V59.2478C259.311 60.9993 259.311 62.7353 259.342 64.4558H257.9ZM256.304 53.6523V53.1718H260.938V53.6523L258.784 53.8228H258.443L256.304 53.6523ZM267.738 64.7193C264.39 64.7193 262.065 62.4873 262.065 58.8448C262.065 55.2178 264.498 52.9238 267.738 52.9238C268.993 52.9238 269.939 53.1873 270.946 53.7763L270.977 56.2718H270.28L269.768 53.5748L270.543 53.8383V54.3808C269.675 53.7298 268.931 53.4663 267.939 53.4663C265.366 53.4663 263.537 55.3883 263.537 58.8293C263.537 62.2858 265.366 64.1768 267.877 64.1768C268.869 64.1768 269.753 63.9288 270.636 63.2778V63.7893L269.877 64.0063L270.404 61.3713H271.101L271.07 63.8513C270.032 64.4713 268.993 64.7193 267.738 64.7193Z" fill="#333333"/>
<path d="M72.4423 13.1673H90.8573L92.8293 10.4993C92.8293 10.4993 95.0913 12.2973 96.3963 13.5443C96.3383 13.8633 96.0193 14.0083 95.5843 14.0083H72.6743L72.4423 13.1673ZM70.6733 33.9893H92.8003L94.7143 31.2053C94.7143 31.2053 96.9183 33.1193 98.1363 34.3663C98.0493 34.6853 97.7593 34.8303 97.3243 34.8303H70.9053L70.6733 33.9893ZM81.3453 13.1673H84.9123C83.8393 19.0543 81.7513 28.8853 80.3303 34.3373H76.7633C78.2423 28.7983 80.3303 18.9093 81.3453 13.1673ZM73.8343 21.8383H90.5093V22.6793H74.0953L73.8343 21.8383ZM88.3923 21.8383H88.1023L89.7553 20.0693L93.0323 22.5923C92.8293 22.8243 92.4523 23.0563 91.8433 23.2013V34.4243H88.3923V21.8383ZM109.707 19.1413C111.94 28.0733 118.871 31.4953 127.455 33.0323L127.397 33.3513C125.773 33.6703 124.642 34.7723 124.091 36.4833C116.087 33.9893 111.099 29.6393 109.272 19.3733L109.707 19.1413ZM104.864 12.4423H120.64L122.583 9.97731C122.583 9.97731 124.787 11.6303 126.121 12.7903C126.034 13.1093 125.715 13.2543 125.28 13.2543H104.864V12.4423ZM103.878 12.4423V12.1523V10.8183L107.851 12.4423H107.329V19.3733C107.329 24.7673 106.807 32.0173 99.9343 36.5703L99.6443 36.3383C103.414 31.3503 103.878 25.0863 103.878 19.3733V12.4423ZM119.277 19.1413H118.9L120.988 17.1403L124.352 20.2143C124.12 20.5623 123.83 20.6493 123.076 20.7363C120.263 28.5083 114.724 34.2213 103.443 36.4253L103.269 36.0773C112.114 32.9163 117.334 26.8843 119.277 19.1413ZM105.067 19.1413H120.669V19.9823H105.067V19.1413ZM140.534 12.7033H143.898V33.1193H140.534V12.7033ZM130.877 12.5583V11.0793L134.531 12.5583H151.554V13.3993H134.241V34.8303C134.241 35.2363 132.907 36.0773 131.428 36.0773H130.877V12.5583ZM150.452 12.5583H150.162L151.815 10.7313L155.092 13.3413C154.889 13.6023 154.483 13.8053 153.903 13.9503V34.7433C153.874 35.0043 152.25 35.7873 150.974 35.7873H150.452V12.5583ZM132.878 22.4183H151.728V23.2303H132.878V22.4183ZM132.878 32.6263H151.728V33.4383H132.878V32.6263ZM163.763 24.3613H175.16L176.61 22.5633C176.61 22.5633 178.292 23.8103 179.336 24.7093C179.278 25.0283 178.959 25.1733 178.553 25.1733H163.995L163.763 24.3613ZM171.564 12.7613H177.103L178.901 10.5283C178.901 10.5283 180.931 12.0363 182.178 13.1093C182.091 13.4283 181.801 13.5733 181.395 13.5733H171.564V12.7613ZM172.724 26.0143C180.728 27.1743 179.046 32.6553 176.262 31.0313C175.682 29.3783 173.884 27.3773 172.463 26.2173L172.724 26.0143ZM165.155 19.1123C170.955 20.9393 168.229 25.0863 166.112 23.1433C166.112 21.8383 165.474 20.2723 164.865 19.2863L165.155 19.1123ZM157.76 16.6763H179.51L181.453 14.2693C181.453 14.2693 183.657 15.8933 185.02 17.0533C184.933 17.3723 184.585 17.5173 184.179 17.5173H157.992L157.76 16.6763ZM161.791 33.5833H180.989V34.4243H161.791V33.5833ZM159.877 18.8803L164.053 19.2863C163.995 19.6343 163.792 19.9243 163.067 20.0403V35.6133C163.067 35.9323 161.675 36.5703 160.486 36.5703H159.877V18.8803ZM179.655 18.9093L183.976 19.3153C183.918 19.7213 183.686 20.0113 182.903 20.1273V35.6133C182.903 35.9033 181.511 36.5703 180.264 36.5703H179.655V18.9093ZM169.824 9.42631L174.261 9.80331C174.203 10.1803 173.971 10.4703 173.246 10.5863V17.1693H169.824V9.42631ZM162.632 10.8473L166.75 11.1953C166.692 11.5723 166.489 11.8333 165.793 11.9203V17.1113H162.632V10.8473ZM169.737 18.3293L173.797 18.7353C173.739 19.1413 173.478 19.4313 172.724 19.5473V31.9303C172.724 32.1913 171.419 32.7423 170.288 32.7423H169.737V18.3293ZM168.693 24.4193H172.376C170.723 27.7833 167.301 30.4513 163.763 32.0173L163.531 31.6693C165.851 29.8133 167.91 26.9133 168.693 24.4193ZM175.276 18.8803L178.698 20.3593C178.611 20.6493 178.35 20.7943 177.625 20.7073C176.784 21.4903 174.986 22.8243 173.884 23.6943L173.594 23.4333C174.145 22.1283 174.899 20.0113 175.276 18.8803ZM206.857 10.1223L211.236 10.5573C211.149 10.9633 210.946 11.2823 210.163 11.3983V35.3813C210.163 35.7293 208.742 36.5123 207.495 36.5123H206.857V10.1223ZM200.1 12.4423C208.22 13.6313 205.581 19.6053 202.594 17.4303C202.333 15.7483 201.115 13.8343 199.868 12.6743L200.1 12.4423ZM199.549 19.6343C207.756 20.5043 205.175 26.5363 202.13 24.4483C201.811 22.7953 200.535 20.9393 199.317 19.8373L199.549 19.6343ZM186.992 18.5033H195.344L196.91 16.2703C196.91 16.2703 198.679 17.8073 199.694 18.8513C199.636 19.1703 199.317 19.3153 198.911 19.3153H187.224L186.992 18.5033ZM195.663 9.48431L199.404 12.7323C199.085 13.0223 198.447 13.1093 197.519 12.7903C194.88 13.5153 190.646 14.2113 186.905 14.3853L186.818 14.0373C189.979 12.9353 193.778 10.9343 195.663 9.48431ZM191.342 18.6193H194.822V19.0833C193.459 23.9263 190.617 27.9863 186.702 31.0313L186.383 30.7123C188.79 27.4933 190.472 22.8243 191.342 18.6193ZM191.574 13.4283L194.909 12.0943V35.6713C194.88 35.8743 193.807 36.6283 192.183 36.6283H191.574V13.4283ZM194.677 20.8523C201.724 23.0563 199.027 27.9863 196.504 25.8983C196.301 24.2453 195.257 22.3313 194.416 21.0263L194.677 20.8523ZM197.229 28.8273L210.395 26.3333L211.787 23.6363C211.787 23.6363 213.527 24.9703 214.571 25.8983C214.571 26.1883 214.31 26.4203 213.962 26.4783L197.606 29.5813L197.229 28.8273ZM225.823 17.1693H235.219L237.017 14.9363C237.017 14.9363 239.018 16.3863 240.294 17.5173C240.207 17.8363 239.888 17.9813 239.482 17.9813H225.388L225.823 17.1693ZM222.024 22.2733H236.64L238.496 19.9533C238.496 19.9533 240.584 21.5483 241.831 22.6503C241.744 22.9693 241.454 23.1143 241.019 23.1143H222.256L222.024 22.2733ZM226.49 12.9063L230.782 14.3563C230.666 14.7333 230.289 14.9653 229.622 14.9073C227.853 18.0973 225.359 20.2433 222.691 21.5773L222.401 21.2873C224.025 19.3443 225.678 16.2123 226.49 12.9063ZM231.507 24.7673C242.266 25.8693 240.758 33.0323 237.133 31.2633C236.06 29.0303 233.45 26.4783 231.304 24.9993L231.507 24.7673ZM229.477 17.2563H233.044C232.87 24.9413 232.783 29.4363 222.111 32.1043L221.85 31.6983C229.767 28.5083 229.448 24.1873 229.477 17.2563ZM217.558 11.7173V10.2673L221.444 11.7173H221.038V35.8163C221.038 36.0483 219.965 36.7443 218.196 36.7443H217.558V11.7173ZM219.878 11.7173H236.698L238.583 9.42631C238.583 9.42631 240.729 10.9633 242.063 12.0653C241.976 12.3843 241.686 12.5293 241.251 12.5293H219.878V11.7173ZM219.82 33.6703H237.51L239.54 31.1473C239.54 31.1473 241.802 32.8583 243.194 34.0473C243.107 34.3663 242.788 34.5113 242.353 34.5113H219.82V33.6703ZM256.157 13.6603H268.975V14.4723H256.157V13.6603ZM260.652 9.48431L264.915 9.83231C264.886 10.2093 264.654 10.4703 263.958 10.5863V14.0663H260.652V9.48431ZM268.076 13.6603H267.757L269.41 11.9783L272.31 14.7333C272.078 14.9943 271.788 15.0523 271.179 15.0813C270.309 15.7193 268.772 16.6473 267.699 17.1403L267.409 16.9663C267.641 16.0963 267.96 14.5303 268.076 13.6603ZM255.461 18.5613H265.321L266.945 16.4153C266.945 16.4153 268.801 17.8943 269.932 18.9093C269.845 19.2283 269.526 19.3733 269.12 19.3733H255.693L255.461 18.5613ZM254.185 22.9693H267.293L268.975 20.6783C268.975 20.6783 270.889 22.2443 272.02 23.3173C271.962 23.6363 271.643 23.7813 271.237 23.7813H254.417L254.185 22.9693ZM245.862 11.5143V10.1803L249.371 11.5143H248.965V35.6423C248.965 35.8743 248.008 36.6573 246.442 36.6573H245.862V11.5143ZM247.399 11.5143H252.851V12.3263H247.399V11.5143ZM251.314 11.5143H250.966L252.619 9.89031L255.693 12.7613C255.49 13.0513 255.084 13.1383 254.417 13.1673C253.518 14.8783 251.923 17.8363 250.589 19.5763C253.257 21.4903 254.417 24.1583 254.417 26.4203C254.417 29.2043 253.46 30.7703 250.502 30.8283C250.502 29.9873 250.386 28.7693 250.154 28.3923C249.951 28.1023 249.574 27.8413 249.023 27.6963V27.3483C249.429 27.3483 250.096 27.3483 250.357 27.3483C250.647 27.3483 250.792 27.3193 250.966 27.1743C251.285 26.9713 251.459 26.4493 251.459 25.6083C251.459 23.6363 251.053 21.4903 249.864 19.6343C250.386 17.5753 251.053 13.6313 251.314 11.5143ZM256.157 11.6013H256.592C257.868 14.6173 257.346 16.8793 256.244 17.7783C255.461 18.3873 254.156 18.2423 253.721 17.2563C253.373 16.3283 253.895 15.5163 254.736 15.0523C255.49 14.4723 256.302 12.9933 256.157 11.6013ZM263.233 23.2013H266.394C266.394 23.5493 266.394 23.9553 266.394 24.1873V32.3073C266.394 32.6553 266.481 32.7713 267.003 32.7713H268.192C268.685 32.7713 269.091 32.7713 269.294 32.7713C269.555 32.7713 269.642 32.7133 269.816 32.4233C270.077 31.9303 270.512 30.3353 270.947 28.6243H271.295L271.382 32.5973C272.136 32.9453 272.281 33.3513 272.281 33.9313C272.281 35.1783 271.266 35.8743 267.873 35.8743H266.017C263.639 35.8743 263.233 35.2363 263.233 33.1773V23.2013ZM257.752 23.2303H261.203C260.942 30.2193 258.796 34.4533 250.879 36.5993L250.734 36.2223C256.621 33.2353 257.694 29.2043 257.752 23.2303Z" fill="#111111"/>
<g clip-path="url(#clip0_14_2022)">
<path d="M46.2974 18.0363C43.3068 14.4602 39.4481 12.2388 36.2426 12.2388C33.8449 12.2388 31.284 13.7667 29.041 16.53C28.2589 17.4945 27.1417 18.0471 25.9644 18.0471C24.787 18.0471 23.6612 17.4945 22.8878 16.53C20.6448 13.7667 18.0924 12.2388 15.6861 12.2388C12.472 12.2388 8.62195 14.4602 5.63128 18.0363C2.21952 22.1108 0.509337 27.1389 0.921842 31.842C1.42888 37.5853 4.26486 47.2731 7.96881 55.9423C9.81649 60.2552 11.6985 63.9071 13.4259 66.5187C15.8322 70.1489 17.3877 70.9075 18.2729 70.9075C18.6424 70.9075 18.9861 70.7775 19.2955 70.5282C20.1893 69.7805 21.1346 68.1117 22.1917 65.4134C22.8362 63.7663 24.3229 62.6934 25.9644 62.6934C27.6058 62.6934 29.1011 63.7663 29.7371 65.4134C30.7855 68.1117 31.7309 69.7913 32.6332 70.5282C32.9426 70.7775 33.2863 70.9075 33.6559 70.9075C34.541 70.9075 36.0965 70.1489 38.5028 66.5187C40.2302 63.918 42.1122 60.2552 43.9599 55.9423C47.6639 47.2731 50.4998 37.5853 51.0069 31.842C51.4194 27.1389 49.7092 22.1108 46.2974 18.0471V18.0363ZM48.1194 31.5385C47.6467 36.8809 44.8537 46.3629 41.3302 54.6094C39.5599 58.749 37.7723 62.2275 36.1481 64.6657C35.1168 66.2153 34.3778 67.0064 33.9309 67.4073C33.5957 66.8763 33.0887 65.901 32.4098 64.1672C31.3097 61.3497 28.7832 59.5292 25.9644 59.5292C23.1456 59.5292 20.619 61.3497 19.519 64.1672C18.84 65.901 18.333 66.8763 17.9979 67.4073C17.551 67.0064 16.8033 66.2153 15.7806 64.6657C14.1564 62.2166 12.3689 58.7381 10.5985 54.6094C7.07505 46.3629 4.28204 36.8809 3.80938 31.5385C3.47422 27.7241 4.91799 23.5737 7.77975 20.1602C10.2032 17.2669 13.3056 15.3922 15.6947 15.3922C17.2244 15.3922 19.0549 16.5625 20.7221 18.6215C22.0542 20.2578 23.962 21.2005 25.973 21.2005C27.9839 21.2005 29.9004 20.2578 31.2238 18.6215C32.8824 16.5734 34.7129 15.3922 36.2512 15.3922C38.6317 15.3922 41.7427 17.2669 44.1662 20.1602C47.0279 23.5737 48.4717 27.7241 48.1365 31.5385H48.1194Z" fill="#EDB0BF"/>
<path d="M54.0922 18.0363C51.1015 14.4602 47.2428 12.2388 44.0373 12.2388C41.6396 12.2388 39.0787 13.7667 36.8357 16.53C36.0536 17.4945 34.9364 18.0471 33.7591 18.0471C32.5817 18.0471 31.4559 17.4945 30.6825 16.53C28.4395 13.7667 25.8871 12.2388 23.4808 12.2388C20.2667 12.2388 16.4166 14.4602 13.426 18.0363C10.0228 22.1108 8.30404 27.1389 8.71654 31.8311C9.22358 37.5745 12.0596 47.2623 15.7635 55.9315C17.6112 60.2444 19.4932 63.8963 21.2206 66.5079C23.6269 70.1381 25.1824 70.8967 26.0676 70.8967C26.4371 70.8967 26.7808 70.7666 27.0902 70.5174C27.984 69.7697 28.9293 68.1008 29.9864 65.4026C30.6309 63.7554 32.1176 62.6826 33.7591 62.6826C35.4005 62.6826 36.8958 63.7554 37.5318 65.4026C38.5802 68.1008 39.5256 69.7805 40.4279 70.5174C40.7373 70.7666 41.081 70.8967 41.4506 70.8967C42.3357 70.8967 43.8912 70.1381 46.2975 66.5079C48.0249 63.9071 49.9069 60.2444 51.7546 55.9315C55.4586 47.2623 58.2946 37.5745 58.8016 31.8311C59.2141 27.1281 57.5039 22.1 54.0922 18.0363ZM55.9141 31.5385C55.4414 36.8809 52.6484 46.3629 49.1249 54.6094C47.3546 58.749 45.567 62.2275 43.9428 64.6657C42.9115 66.2153 42.1725 67.0064 41.7256 67.4073C41.3904 66.8763 40.8834 65.901 40.2045 64.1672C39.1045 61.3497 36.5779 59.5292 33.7591 59.5292C30.9403 59.5292 28.4137 61.3497 27.3137 64.1672C26.6348 65.901 26.1277 66.8763 25.7926 67.4073C25.3457 67.0064 24.598 66.2153 23.5753 64.6657C21.9511 62.2166 20.1636 58.7381 18.3932 54.6094C14.8697 46.3629 12.0767 36.8809 11.6041 31.5385C11.2689 27.7241 12.7127 23.5737 15.5744 20.1602C17.9979 17.2669 21.1003 15.3922 23.4894 15.3922C25.0191 15.3922 26.8496 16.5625 28.5168 18.6215C29.8489 20.2578 31.7567 21.2005 33.7677 21.2005C35.7786 21.2005 37.6951 20.2578 39.0185 18.6215C40.6771 16.5734 42.5076 15.3922 44.0459 15.3922C46.4264 15.3922 49.5374 17.2669 51.9609 20.1602C54.8226 23.5737 56.2664 27.7241 55.9312 31.5385H55.9141Z" fill="#C0E5E8"/>
</g>
<defs>
<clipPath id="clip0_14_2022">
<rect width="58" height="58.6579" fill="white" transform="translate(0.861328 12.2388)"/>
</clipPath>
</defs>
</svg>
