<svg width="215" height="52" viewBox="0 0 215 52" fill="none" xmlns="http://www.w3.org/2000/svg">
<path d="M61.888 47.8845C59.444 47.8845 57.78 45.9865 57.78 42.9575C57.78 39.9415 59.496 38.0565 62.005 38.0565C63.292 38.0565 64.111 38.6545 64.618 39.2005L64.163 39.7075C63.682 39.2005 63.032 38.7585 62.018 38.7585C59.912 38.7585 58.586 40.3705 58.586 42.9445C58.586 45.5185 59.821 47.1825 61.966 47.1825C62.772 47.1825 63.552 46.9225 63.968 46.5065V43.6595H61.771V42.9965H64.735V46.8055C64.124 47.4295 63.136 47.8845 61.888 47.8845ZM70.4531 47.8845C68.1521 47.8845 66.5271 45.9475 66.5271 42.9445C66.5271 39.9285 68.1521 38.0565 70.4531 38.0565C72.7541 38.0565 74.3921 39.9415 74.3921 42.9445C74.3921 45.9475 72.7541 47.8845 70.4531 47.8845ZM70.4531 47.1825C72.3251 47.1825 73.5861 45.5185 73.5861 42.9445C73.5861 40.3705 72.3251 38.7585 70.4531 38.7585C68.5811 38.7585 67.3331 40.3705 67.3331 42.9445C67.3331 45.5185 68.5811 47.1825 70.4531 47.1825ZM78.2426 47.7025V38.9015H75.2656V38.2255H82.0126V38.9015H79.0356V47.7025H78.2426ZM81.9484 47.7025L85.2634 38.2255H86.0694L89.3844 47.7025H88.5654L86.7194 42.1905C86.3424 41.0725 86.0304 40.0715 85.6924 38.9275H85.6404C85.3024 40.0845 84.9774 41.0725 84.6004 42.1905L82.7414 47.7025H81.9484ZM83.5084 44.5305V43.8935H87.7854V44.5305H83.5084ZM90.878 47.7025V38.2255H91.684L95.558 44.7515L96.611 46.6495H96.676C96.624 45.7265 96.559 44.7775 96.559 43.8415V38.2255H97.313V47.7025H96.494L92.633 41.1895L91.567 39.2785H91.515C91.554 40.2015 91.606 41.0855 91.606 42.0345V47.7025H90.878ZM100.069 47.7025V38.2255H102.292C105.217 38.2255 106.634 40.0325 106.634 42.9445C106.634 45.8435 105.217 47.7025 102.318 47.7025H100.069ZM100.836 47.0525H102.214C104.71 47.0525 105.828 45.4015 105.828 42.9445C105.828 40.4745 104.71 38.8885 102.214 38.8885H100.836V47.0525ZM107.364 47.7025L110.679 38.2255H111.485L114.8 47.7025H113.981L112.135 42.1905C111.758 41.0725 111.446 40.0715 111.108 38.9275H111.056C110.718 40.0845 110.393 41.0725 110.016 42.1905L108.157 47.7025H107.364ZM108.924 44.5305V43.8935H113.201V44.5305H108.924ZM119.163 47.7025V38.2255H121.386C124.311 38.2255 125.728 40.0325 125.728 42.9445C125.728 45.8435 124.311 47.7025 121.412 47.7025H119.163ZM119.93 47.0525H121.308C123.804 47.0525 124.922 45.4015 124.922 42.9445C124.922 40.4745 123.804 38.8885 121.308 38.8885H119.93V47.0525ZM127.898 47.7025V38.2255H133.137V38.9015H128.665V42.3465H132.422V43.0225H128.665V47.0395H133.28V47.7025H127.898ZM135.35 47.7025V38.2255H136.156L140.03 44.7515L141.083 46.6495H141.148C141.096 45.7265 141.031 44.7775 141.031 43.8415V38.2255H141.785V47.7025H140.966L137.105 41.1895L136.039 39.2785H135.987C136.026 40.2015 136.078 41.0855 136.078 42.0345V47.7025H135.35ZM146.556 47.7025V38.9015H143.579V38.2255H150.326V38.9015H147.349V47.7025H146.556ZM150.262 47.7025L153.577 38.2255H154.383L157.698 47.7025H156.879L155.033 42.1905C154.656 41.0725 154.344 40.0715 154.006 38.9275H153.954C153.616 40.0845 153.291 41.0725 152.914 42.1905L151.055 47.7025H150.262ZM151.822 44.5305V43.8935H156.099V44.5305H151.822ZM159.191 47.7025V38.2255H159.958V47.0395H164.274V47.7025H159.191ZM172.259 47.8845C169.906 47.8845 168.255 45.9865 168.255 42.9575C168.255 39.9415 169.932 38.0565 172.337 38.0565C173.455 38.0565 174.313 38.6155 174.82 39.2005L174.378 39.7075C173.871 39.1485 173.195 38.7585 172.337 38.7585C170.322 38.7585 169.061 40.3705 169.061 42.9445C169.061 45.5185 170.309 47.1825 172.298 47.1825C173.247 47.1825 173.962 46.7795 174.638 46.0255L175.093 46.5325C174.352 47.3775 173.481 47.8845 172.259 47.8845ZM177.003 47.7025V38.2255H177.77V47.0395H182.086V47.7025H177.003ZM183.795 47.7025V38.2255H184.562V47.7025H183.795ZM187.337 47.7025V38.2255H188.143L192.017 44.7515L193.07 46.6495H193.135C193.083 45.7265 193.018 44.7775 193.018 43.8415V38.2255H193.772V47.7025H192.953L189.092 41.1895L188.026 39.2785H187.974C188.013 40.2015 188.065 41.0855 188.065 42.0345V47.7025H187.337ZM196.528 47.7025V38.2255H197.295V47.7025H196.528ZM203.476 47.8845C201.123 47.8845 199.472 45.9865 199.472 42.9575C199.472 39.9415 201.149 38.0565 203.554 38.0565C204.672 38.0565 205.53 38.6155 206.037 39.2005L205.595 39.7075C205.088 39.1485 204.412 38.7585 203.554 38.7585C201.539 38.7585 200.278 40.3705 200.278 42.9445C200.278 45.5185 201.526 47.1825 203.515 47.1825C204.464 47.1825 205.179 46.7795 205.855 46.0255L206.31 46.5325C205.569 47.3775 204.698 47.8845 203.476 47.8845Z" fill="white"/>
<path d="M56.047 10.1655H70.652L72.216 8.04951C72.216 8.04951 74.01 9.47551 75.045 10.4645C74.999 10.7175 74.746 10.8325 74.401 10.8325H56.231L56.047 10.1655ZM54.644 26.6795H72.193L73.711 24.4715C73.711 24.4715 75.459 25.9895 76.425 26.9785C76.356 27.2315 76.126 27.3465 75.781 27.3465H54.828L54.644 26.6795ZM63.108 10.1655H65.937C65.086 14.8345 63.43 22.6315 62.303 26.9555H59.474C60.647 22.5625 62.303 14.7195 63.108 10.1655ZM57.151 17.0425H70.376V17.7095H57.358L57.151 17.0425ZM68.697 17.0425H68.467L69.778 15.6395L72.377 17.6405C72.216 17.8245 71.917 18.0085 71.434 18.1235V27.0245H68.697V17.0425ZM85.602 14.9035C87.373 21.9875 92.87 24.7015 99.678 25.9205L99.632 26.1735C98.344 26.4265 97.447 27.3005 97.01 28.6575C90.662 26.6795 86.706 23.2295 85.257 15.0875L85.602 14.9035ZM81.761 9.59051H94.273L95.814 7.63551C95.814 7.63551 97.562 8.94651 98.62 9.86651C98.551 10.1195 98.298 10.2345 97.953 10.2345H81.761V9.59051ZM80.979 9.59051V9.36051V8.30251L84.13 9.59051H83.716V15.0875C83.716 19.3655 83.302 25.1155 77.851 28.7265L77.621 28.5425C80.611 24.5865 80.979 19.6185 80.979 15.0875V9.59051ZM93.192 14.9035H92.893L94.549 13.3165L97.217 15.7545C97.033 16.0305 96.803 16.0995 96.205 16.1685C93.974 22.3325 89.581 26.8635 80.634 28.6115L80.496 28.3355C87.511 25.8285 91.651 21.0445 93.192 14.9035ZM81.922 14.9035H94.296V15.5705H81.922V14.9035ZM110.051 9.79751H112.719V25.9895H110.051V9.79751ZM102.392 9.68251V8.50951L105.29 9.68251H118.791V10.3495H105.06V27.3465C105.06 27.6685 104.002 28.3355 102.829 28.3355H102.392V9.68251ZM117.917 9.68251H117.687L118.998 8.23351L121.597 10.3035C121.436 10.5105 121.114 10.6715 120.654 10.7865V27.2775C120.631 27.4845 119.343 28.1055 118.331 28.1055H117.917V9.68251ZM103.979 17.5025H118.929V18.1465H103.979V17.5025ZM103.979 25.5985H118.929V26.2425H103.979V25.5985ZM128.474 19.0435H137.513L138.663 17.6175C138.663 17.6175 139.997 18.6065 140.825 19.3195C140.779 19.5725 140.526 19.6875 140.204 19.6875H128.658L128.474 19.0435ZM134.661 9.84351H139.054L140.48 8.07251C140.48 8.07251 142.09 9.26851 143.079 10.1195C143.01 10.3725 142.78 10.4875 142.458 10.4875H134.661V9.84351ZM135.581 20.3545C141.929 21.2745 140.595 25.6215 138.387 24.3335C137.927 23.0225 136.501 21.4355 135.374 20.5155L135.581 20.3545ZM129.578 14.8805C134.178 16.3295 132.016 19.6185 130.337 18.0775C130.337 17.0425 129.831 15.8005 129.348 15.0185L129.578 14.8805ZM123.713 12.9485H140.963L142.504 11.0395C142.504 11.0395 144.252 12.3275 145.333 13.2475C145.264 13.5005 144.988 13.6155 144.666 13.6155H123.897L123.713 12.9485ZM126.91 26.3575H142.136V27.0245H126.91V26.3575ZM125.392 14.6965L128.704 15.0185C128.658 15.2945 128.497 15.5245 127.922 15.6165V27.9675C127.922 28.2205 126.818 28.7265 125.875 28.7265H125.392V14.6965ZM141.078 14.7195L144.505 15.0415C144.459 15.3635 144.275 15.5935 143.654 15.6855V27.9675C143.654 28.1975 142.55 28.7265 141.561 28.7265H141.078V14.7195ZM133.281 7.19851L136.8 7.49751C136.754 7.79651 136.57 8.02651 135.995 8.11851V13.3395H133.281V7.19851ZM127.577 8.32551L130.843 8.60151C130.797 8.90051 130.636 9.10751 130.084 9.17651V13.2935H127.577V8.32551ZM133.212 14.2595L136.432 14.5815C136.386 14.9035 136.179 15.1335 135.581 15.2255V25.0465C135.581 25.2535 134.546 25.6905 133.649 25.6905H133.212V14.2595ZM132.384 19.0895H135.305C133.994 21.7575 131.28 23.8735 128.474 25.1155L128.29 24.8395C130.13 23.3675 131.763 21.0675 132.384 19.0895ZM137.605 14.6965L140.319 15.8695C140.25 16.0995 140.043 16.2145 139.468 16.1455C138.801 16.7665 137.375 17.8245 136.501 18.5145L136.271 18.3075C136.708 17.2725 137.306 15.5935 137.605 14.6965ZM162.652 7.75051L166.125 8.09551C166.056 8.41751 165.895 8.67051 165.274 8.76251V27.7835C165.274 28.0595 164.147 28.6805 163.158 28.6805H162.652V7.75051ZM157.293 9.59051C163.733 10.5335 161.64 15.2715 159.271 13.5465C159.064 12.2125 158.098 10.6945 157.109 9.77451L157.293 9.59051ZM156.856 15.2945C163.365 15.9845 161.318 20.7685 158.903 19.1125C158.65 17.8015 157.638 16.3295 156.672 15.4555L156.856 15.2945ZM146.897 14.3975H153.521L154.763 12.6265C154.763 12.6265 156.166 13.8455 156.971 14.6735C156.925 14.9265 156.672 15.0415 156.35 15.0415H147.081L146.897 14.3975ZM153.774 7.24451L156.741 9.82051C156.488 10.0505 155.982 10.1195 155.246 9.86651C153.153 10.4415 149.795 10.9935 146.828 11.1315L146.759 10.8555C149.266 9.98151 152.279 8.39451 153.774 7.24451ZM150.347 14.4895H153.107V14.8575C152.026 18.6985 149.772 21.9185 146.667 24.3335L146.414 24.0805C148.323 21.5275 149.657 17.8245 150.347 14.4895ZM150.531 10.3725L153.176 9.31451V28.0135C153.153 28.1745 152.302 28.7725 151.014 28.7725H150.531V10.3725ZM152.992 16.2605C158.581 18.0085 156.442 21.9185 154.441 20.2625C154.28 18.9515 153.452 17.4335 152.785 16.3985L152.992 16.2605ZM155.016 22.5855L165.458 20.6075L166.562 18.4685C166.562 18.4685 167.942 19.5265 168.77 20.2625C168.77 20.4925 168.563 20.6765 168.287 20.7225L155.315 23.1835L155.016 22.5855ZM177.694 13.3395H185.146L186.572 11.5685C186.572 11.5685 188.159 12.7185 189.171 13.6155C189.102 13.8685 188.849 13.9835 188.527 13.9835H177.349L177.694 13.3395ZM174.681 17.3875H186.273L187.745 15.5475C187.745 15.5475 189.401 16.8125 190.39 17.6865C190.321 17.9395 190.091 18.0545 189.746 18.0545H174.865L174.681 17.3875ZM178.223 9.95851L181.627 11.1085C181.535 11.4075 181.236 11.5915 180.707 11.5455C179.304 14.0755 177.326 15.7775 175.21 16.8355L174.98 16.6055C176.268 15.0645 177.579 12.5805 178.223 9.95851ZM182.202 19.3655C190.735 20.2395 189.539 25.9205 186.664 24.5175C185.813 22.7465 183.743 20.7225 182.041 19.5495L182.202 19.3655ZM180.592 13.4085H183.421C183.283 19.5035 183.214 23.0685 174.75 25.1845L174.543 24.8625C180.822 22.3325 180.569 18.9055 180.592 13.4085ZM171.139 9.01551V7.86551L174.221 9.01551H173.899V28.1285C173.899 28.3125 173.048 28.8645 171.645 28.8645H171.139V9.01551ZM172.979 9.01551H186.319L187.814 7.19851C187.814 7.19851 189.516 8.41751 190.574 9.29151C190.505 9.54451 190.275 9.65951 189.93 9.65951H172.979V9.01551ZM172.933 26.4265H186.963L188.573 24.4255C188.573 24.4255 190.367 25.7825 191.471 26.7255C191.402 26.9785 191.149 27.0935 190.804 27.0935H172.933V26.4265ZM201.752 10.5565H211.918V11.2005H201.752V10.5565ZM205.317 7.24451L208.698 7.52051C208.675 7.81951 208.491 8.02651 207.939 8.11851V10.8785H205.317V7.24451ZM211.205 10.5565H210.952L212.263 9.22251L214.563 11.4075C214.379 11.6145 214.149 11.6605 213.666 11.6835C212.976 12.1895 211.757 12.9255 210.906 13.3165L210.676 13.1785C210.86 12.4885 211.113 11.2465 211.205 10.5565ZM201.2 14.4435H209.02L210.308 12.7415C210.308 12.7415 211.78 13.9145 212.677 14.7195C212.608 14.9725 212.355 15.0875 212.033 15.0875H201.384L201.2 14.4435ZM200.188 17.9395H210.584L211.918 16.1225C211.918 16.1225 213.436 17.3645 214.333 18.2155C214.287 18.4685 214.034 18.5835 213.712 18.5835H200.372L200.188 17.9395ZM193.587 8.85451V7.79651L196.37 8.85451H196.048V27.9905C196.048 28.1745 195.289 28.7955 194.047 28.7955H193.587V8.85451ZM194.806 8.85451H199.13V9.49851H194.806V8.85451ZM197.911 8.85451H197.635L198.946 7.56651L201.384 9.84351C201.223 10.0735 200.901 10.1425 200.372 10.1655C199.659 11.5225 198.394 13.8685 197.336 15.2485C199.452 16.7665 200.372 18.8825 200.372 20.6765C200.372 22.8845 199.613 24.1265 197.267 24.1725C197.267 23.5055 197.175 22.5395 196.991 22.2405C196.83 22.0105 196.531 21.8035 196.094 21.6885V21.4125C196.416 21.4125 196.945 21.4125 197.152 21.4125C197.382 21.4125 197.497 21.3895 197.635 21.2745C197.888 21.1135 198.026 20.6995 198.026 20.0325C198.026 18.4685 197.704 16.7665 196.761 15.2945C197.175 13.6615 197.704 10.5335 197.911 8.85451ZM201.752 8.92351H202.097C203.109 11.3155 202.695 13.1095 201.821 13.8225C201.2 14.3055 200.165 14.1905 199.82 13.4085C199.544 12.6725 199.958 12.0285 200.625 11.6605C201.223 11.2005 201.867 10.0275 201.752 8.92351ZM207.364 18.1235H209.871C209.871 18.3995 209.871 18.7215 209.871 18.9055V25.3455C209.871 25.6215 209.94 25.7135 210.354 25.7135H211.297C211.688 25.7135 212.01 25.7135 212.171 25.7135C212.378 25.7135 212.447 25.6675 212.585 25.4375C212.792 25.0465 213.137 23.7815 213.482 22.4245H213.758L213.827 25.5755C214.425 25.8515 214.54 26.1735 214.54 26.6335C214.54 27.6225 213.735 28.1745 211.044 28.1745H209.572C207.686 28.1745 207.364 27.6685 207.364 26.0355V18.1235ZM203.017 18.1465H205.754C205.547 23.6895 203.845 27.0475 197.566 28.7495L197.451 28.4505C202.12 26.0815 202.971 22.8845 203.017 18.1465Z" fill="white"/>
<path d="M37.6017 11.415C35.1267 8.99329 31.9334 7.48889 29.2806 7.48889C27.2963 7.48889 25.177 8.52363 23.3207 10.395C22.6735 11.0481 21.7489 11.4223 20.7746 11.4223C19.8002 11.4223 18.8686 11.0481 18.2285 10.395C16.3722 8.52363 14.26 7.48889 12.2686 7.48889C9.60868 7.48889 6.42248 8.99329 3.94748 11.415C1.124 14.1743 -0.291299 17.5794 0.05008 20.7643C0.469691 24.6537 2.81667 31.2144 5.88196 37.0852C7.41105 40.006 8.96859 42.479 10.3981 44.2476C12.3895 46.706 13.6768 47.2197 14.4093 47.2197C14.7151 47.2197 14.9996 47.1317 15.2556 46.9629C15.9953 46.4565 16.7776 45.3264 17.6524 43.4991C18.1858 42.3836 19.4162 41.6571 20.7746 41.6571C22.133 41.6571 23.3705 42.3836 23.8968 43.4991C24.7645 45.3264 25.5468 46.4639 26.2936 46.9629C26.5496 47.1317 26.8341 47.2197 27.1399 47.2197C27.8724 47.2197 29.1597 46.706 31.1511 44.2476C32.5806 42.4864 34.1381 40.006 35.6672 37.0852C38.7325 31.2144 41.0795 24.6537 41.4991 20.7643C41.8405 17.5794 40.4252 14.1743 37.6017 11.4223V11.415ZM39.1095 20.5588C38.7183 24.1767 36.4069 30.5979 33.4909 36.1826C32.0259 38.9859 30.5466 41.3416 29.2024 42.9927C28.3489 44.0422 27.7373 44.5779 27.3675 44.8494C27.0901 44.4898 26.6705 43.8293 26.1086 42.6552C25.1983 40.7471 23.1074 39.5143 20.7746 39.5143C18.4418 39.5143 16.3509 40.7471 15.4406 42.6552C14.8787 43.8293 14.4591 44.4898 14.1817 44.8494C13.8119 44.5779 13.1932 44.0422 12.3468 42.9927C11.0026 41.3342 9.52333 38.9786 8.05825 36.1826C5.14231 30.5979 2.83089 24.1767 2.43973 20.5588C2.16236 17.9757 3.35718 15.165 5.7255 12.8534C7.7311 10.894 10.2985 9.62441 12.2757 9.62441C13.5416 9.62441 15.0565 10.417 16.4362 11.8113C17.5386 12.9194 19.1175 13.5579 20.7817 13.5579C22.4459 13.5579 24.0319 12.9194 25.1272 11.8113C26.4998 10.4243 28.0147 9.62441 29.2877 9.62441C31.2578 9.62441 33.8323 10.894 35.8379 12.8534C38.2062 15.165 39.4011 17.9757 39.1237 20.5588H39.1095Z" fill="white"/>
<path d="M44.0525 11.415C41.5775 8.99329 38.3842 7.48889 35.7314 7.48889C33.7471 7.48889 31.6277 8.52363 29.7715 10.395C29.1243 11.0481 28.1997 11.4223 27.2253 11.4223C26.251 11.4223 25.3193 11.0481 24.6792 10.395C22.823 8.52363 20.7107 7.48889 18.7193 7.48889C16.0594 7.48889 12.8732 8.99329 10.3982 11.415C7.58185 14.1743 6.15944 17.5794 6.50082 20.757C6.92043 24.6464 9.26741 31.207 12.3327 37.0779C13.8618 39.9986 15.4193 42.4717 16.8489 44.2403C18.8402 46.6987 20.1275 47.2124 20.8601 47.2124C21.1659 47.2124 21.4504 47.1243 21.7064 46.9556C22.446 46.4492 23.2284 45.3191 24.1032 43.4918C24.6366 42.3763 25.8669 41.6498 27.2253 41.6498C28.5837 41.6498 29.8212 42.3763 30.3475 43.4918C31.2152 45.3191 31.9975 46.4565 32.7443 46.9556C33.0003 47.1243 33.2848 47.2124 33.5906 47.2124C34.3232 47.2124 35.6105 46.6987 37.6018 44.2403C39.0313 42.479 40.5889 39.9986 42.118 37.0779C45.1833 31.207 47.5303 24.6464 47.9499 20.757C48.2912 17.572 46.8759 14.167 44.0525 11.415ZM45.5602 20.5588C45.1691 24.1767 42.8576 30.5979 39.9417 36.1826C38.4766 38.9859 36.9973 41.3416 35.6531 42.9927C34.7997 44.0422 34.188 44.5779 33.8182 44.8494C33.5408 44.4898 33.1212 43.8293 32.5594 42.6552C31.649 40.7471 29.5581 39.5143 27.2253 39.5143C24.8926 39.5143 22.8016 40.7471 21.8913 42.6552C21.3295 43.8293 20.9098 44.4898 20.6325 44.8494C20.2626 44.5779 19.6439 44.0422 18.7976 42.9927C17.4534 41.3342 15.9741 38.9786 14.509 36.1826C11.5931 30.5979 9.28164 24.1767 8.89047 20.5588C8.6131 17.9757 9.80793 15.165 12.1762 12.8534C14.1818 10.894 16.7493 9.62441 18.7264 9.62441C19.9924 9.62441 21.5073 10.417 22.887 11.8113C23.9894 12.9194 25.5682 13.5579 27.2325 13.5579C28.8967 13.5579 30.4827 12.9194 31.5779 11.8113C32.9505 10.4243 34.4654 9.62441 35.7385 9.62441C37.7085 9.62441 40.2831 10.894 42.2887 12.8534C44.657 15.165 45.8518 17.9757 45.5744 20.5588H45.5602Z" fill="white"/>
</svg>
