<svg width="31" height="31" viewBox="0 0 31 31" fill="none" xmlns="http://www.w3.org/2000/svg">
<path d="M30.7003 9.53408C30.682 8.27508 30.4492 7.02605 30.0035 5.84853C29.2234 3.83778 27.6351 2.2478 25.6244 1.46944C24.4618 1.03203 23.2328 0.797528 21.9887 0.770917C20.3888 0.699401 19.8815 0.679443 15.8201 0.679443C11.7586 0.679443 11.2381 0.679443 9.64976 0.770917C8.40739 0.797528 7.17831 1.03203 6.01577 1.46944C4.00501 2.2478 2.41504 3.83778 1.63668 5.84853C1.19927 7.01108 0.963101 8.24015 0.939816 9.48253C0.868301 11.0841 0.84668 11.5914 0.84668 15.6528C0.84668 19.7143 0.84668 20.2332 0.939816 21.8231C0.964764 23.0672 1.19927 24.2946 1.63668 25.4605C2.4167 27.4696 4.00501 29.0595 6.01743 29.8379C7.17499 30.2903 8.40406 30.5464 9.65143 30.5863C11.253 30.6578 11.7603 30.6794 15.8217 30.6794C19.8832 30.6794 20.4037 30.6794 21.992 30.5863C23.2344 30.5614 24.4635 30.3269 25.6277 29.8894C27.6385 29.1094 29.2268 27.5194 30.0068 25.5104C30.4442 24.3461 30.6787 23.1187 30.7036 21.873C30.7752 20.2731 30.7968 19.7658 30.7968 15.7027C30.7935 11.6413 30.7935 11.1257 30.7003 9.53408ZM15.8101 23.3333C11.5624 23.3333 8.12132 19.8922 8.12132 15.6445C8.12132 11.3968 11.5624 7.95575 15.8101 7.95575C20.0545 7.95575 23.4989 11.3968 23.4989 15.6445C23.4989 19.8922 20.0545 23.3333 15.8101 23.3333ZM23.8049 9.46423C22.812 9.46423 22.012 8.66259 22.012 7.67135C22.012 6.68011 22.812 5.87847 23.8049 5.87847C24.7945 5.87847 25.5961 6.68011 25.5961 7.67135C25.5961 8.66259 24.7945 9.46423 23.8049 9.46423Z" fill="#50D5E0"/>
<path d="M15.8099 20.6391C18.5682 20.6391 20.8043 18.403 20.8043 15.6446C20.8043 12.8862 18.5682 10.6501 15.8099 10.6501C13.0515 10.6501 10.8154 12.8862 10.8154 15.6446C10.8154 18.403 13.0515 20.6391 15.8099 20.6391Z" fill="white"/>
</svg>
