<svg width="31" height="31" viewBox="0 0 31 31" fill="none" xmlns="http://www.w3.org/2000/svg">
<g clip-path="url(#clip0_14_2015)">
<path d="M22.7024 23.7698H20.2506L15.3831 16.806L14.6662 15.7819L8.97949 7.64331H11.4313L16.0217 14.2096L16.7385 15.2337L22.7084 23.7698H22.7024Z" fill="white"/>
<path d="M15.8467 0.679443C7.56355 0.679443 0.84668 7.39631 0.84668 15.6794C0.84668 23.9626 7.56355 30.6794 15.8467 30.6794C24.1298 30.6794 30.8467 23.9626 30.8467 15.6794C30.8467 7.39631 24.1298 0.679443 15.8467 0.679443ZM19.5033 24.9144L14.5756 17.7457L8.40692 24.9144H6.81053L13.8648 16.7156L6.81053 6.4445H12.1901L16.8587 13.2337L22.7021 6.4445H24.2985L17.5696 14.2638L24.8888 24.9144H19.5093H19.5033Z" fill="#50D5E0"/>
</g>
<defs>
<clipPath id="clip0_14_2015">
<rect width="30" height="30" fill="white" transform="translate(0.84668 0.679443)"/>
</clipPath>
</defs>
</svg>
