<svg width="31" height="31" viewBox="0 0 31 31" fill="none" xmlns="http://www.w3.org/2000/svg">
<path d="M30.8467 15.7724C30.8467 7.43447 24.1276 0.679443 15.8467 0.679443C7.56012 0.679443 0.84668 7.43447 0.84668 15.7724C0.84668 23.3037 6.33012 29.5484 13.5029 30.6794V20.1361H9.69387V15.7733H13.5029V12.4463C13.5029 8.66454 15.7389 6.57606 19.1664 6.57606C20.8079 6.57606 22.5264 6.87037 22.5264 6.87037V10.5842H20.6317C18.7717 10.5842 18.1904 11.7492 18.1904 12.9424V15.7724H22.3501L21.6817 20.1352H18.1904V30.6785C25.3576 29.5475 30.8467 23.3028 30.8467 15.7714V15.7724Z" fill="#50D5E0"/>
</svg>
