<svg width="272" height="60" viewBox="0 0 272 60" fill="none" xmlns="http://www.w3.org/2000/svg">
<path d="M77.541 56.2635C74.1465 56.2635 71.868 53.892 71.868 50.358C71.868 46.8395 74.2085 44.468 77.5875 44.468C78.9825 44.468 79.9745 44.778 80.9355 45.367L80.9665 47.847H80.269L79.742 45.15L80.5325 45.46V46.0335C79.6335 45.305 78.874 45.0105 77.758 45.0105C75.1695 45.0105 73.3405 46.979 73.3405 50.3735C73.3405 53.6595 75.092 55.721 77.6805 55.721C78.6725 55.721 79.4785 55.4885 80.3465 55.008L79.835 55.4575V54.45C79.835 53.148 79.804 51.908 79.773 50.606H81.1835C81.1525 51.784 81.137 52.9775 81.137 54.4655V55.256C79.928 55.9535 78.8895 56.2635 77.541 56.2635ZM77.9595 51.071V50.606H82.284V51.071L80.61 51.2415H80.114L77.9595 51.071ZM88.2511 56.2635C85.5231 56.2635 83.1981 54.0935 83.1981 50.3735C83.1981 46.6845 85.5231 44.468 88.2511 44.468C91.0101 44.468 93.3351 46.638 93.3351 50.3735C93.3351 54.0625 91.0101 56.2635 88.2511 56.2635ZM88.2511 55.721C90.6226 55.721 91.8626 53.2875 91.8626 50.3735C91.8626 47.4595 90.6226 45.0105 88.2511 45.0105C85.8951 45.0105 84.6551 47.4595 84.6551 50.3735C84.6551 53.2875 85.8951 55.721 88.2511 55.721ZM96.416 56V55.535L98.6945 55.349H99.082L101.376 55.535V56H96.416ZM98.183 56C98.2295 54.295 98.2295 52.5435 98.2295 50.792V49.9395C98.2295 48.188 98.2295 46.452 98.183 44.716H99.6245C99.5935 46.4365 99.5935 48.188 99.5935 49.9395V50.792C99.5935 52.5435 99.5935 54.2795 99.6245 56H98.183ZM94.1375 47.661L94.2615 44.716H103.546L103.686 47.661H103.019L102.461 44.716L103.097 45.274H94.6955L95.362 44.716L94.7885 47.661H94.1375ZM102.86 56V55.535L104.395 55.3645H104.658L106.332 55.535V56H102.86ZM103.992 56L107.774 44.623H108.642L112.486 56H111.091L107.665 45.553H107.991L107.929 45.77L104.643 56H103.992ZM105.666 52.156L105.712 51.66H110.44L110.486 52.156H105.666ZM109.169 56V55.535L111.23 55.3645H111.68L113.71 55.535V56H109.169ZM114.157 56V55.535L115.8 55.349H116.125L118.125 55.535V56H114.157ZM115.645 56V45.088H116.187L116.249 51.0555V56H115.645ZM121.225 45.1965V44.716H125.193V45.1965L123.565 45.367H123.24L121.225 45.1965ZM123.023 56.1085L116.048 45.8785L116.017 45.8475L115.645 45.2895L114.126 45.1965V44.716H116.869L123.41 54.419L123.131 54.512L123.116 49.8775V44.716H123.689V56.1085H123.023ZM126.232 56V55.535L128.371 55.349H128.557V56H126.232ZM127.828 56C127.859 54.295 127.859 52.5435 127.859 50.4665V50.0325C127.859 48.188 127.859 46.452 127.828 44.716H129.27C129.239 46.4365 129.239 48.188 129.239 50.0325V50.4665C129.239 52.5435 129.239 54.2795 129.27 56H127.828ZM128.557 56V55.4885H130.525C133.486 55.4885 135.02 53.551 135.02 50.3735C135.02 47.0255 133.47 45.243 130.68 45.243H128.557V44.716H130.882C134.369 44.716 136.477 46.7775 136.477 50.358C136.477 53.8455 134.276 56 130.649 56H128.557ZM126.232 45.1965V44.716H128.557V45.367H128.371L126.232 45.1965ZM136.442 56V55.535L137.976 55.3645H138.24L139.914 55.535V56H136.442ZM137.573 56L141.355 44.623H142.223L146.067 56H144.672L141.247 45.553H141.572L141.51 45.77L138.224 56H137.573ZM139.247 52.156L139.294 51.66H144.021L144.068 52.156H139.247ZM142.75 56V55.535L144.812 55.3645H145.261L147.292 55.535V56H142.75ZM151.859 56V55.535L153.998 55.349H154.184V56H151.859ZM153.455 56C153.486 54.295 153.486 52.5435 153.486 50.4665V50.0325C153.486 48.188 153.486 46.452 153.455 44.716H154.897C154.866 46.4365 154.866 48.188 154.866 50.0325V50.4665C154.866 52.5435 154.866 54.2795 154.897 56H153.455ZM154.184 56V55.4885H156.152C159.113 55.4885 160.647 53.551 160.647 50.3735C160.647 47.0255 159.097 45.243 156.307 45.243H154.184V44.716H156.509C159.996 44.716 162.104 46.7775 162.104 50.358C162.104 53.8455 159.903 56 156.276 56H154.184ZM151.859 45.1965V44.716H154.184V45.367H153.998L151.859 45.1965ZM163.143 56V55.535L165.282 55.349H165.468V56H163.143ZM164.74 56C164.771 54.295 164.771 52.5435 164.771 50.792V49.9395C164.771 48.188 164.771 46.452 164.74 44.716H166.181C166.15 46.4365 166.15 48.188 166.15 50.1255V50.4665C166.15 52.5435 166.15 54.2795 166.181 56H164.74ZM165.468 56V55.473H171.265L170.583 55.876L171.095 53.179H171.761L171.653 56H165.468ZM165.468 50.544V50.017H169.188V50.544H165.468ZM169.08 52.125L168.878 50.4045V50.079L169.08 48.405H169.622V52.125H169.08ZM163.143 45.1965V44.716H165.468V45.367H165.282L163.143 45.1965ZM170.816 47.506L170.304 44.84L171.002 45.274H165.468V44.716H171.374L171.482 47.506H170.816ZM172.821 56V55.535L174.464 55.349H174.789L176.789 55.535V56H172.821ZM174.309 56V45.088H174.851L174.913 51.0555V56H174.309ZM179.889 45.1965V44.716H183.857V45.1965L182.229 45.367H181.904L179.889 45.1965ZM181.687 56.1085L174.712 45.8785L174.681 45.8475L174.309 45.2895L172.79 45.1965V44.716H175.533L182.074 54.419L181.795 54.512L181.78 49.8775V44.716H182.353V56.1085H181.687ZM186.785 56V55.535L189.063 55.349H189.451L191.745 55.535V56H186.785ZM188.552 56C188.598 54.295 188.598 52.5435 188.598 50.792V49.9395C188.598 48.188 188.598 46.452 188.552 44.716H189.993C189.962 46.4365 189.962 48.188 189.962 49.9395V50.792C189.962 52.5435 189.962 54.2795 189.993 56H188.552ZM184.506 47.661L184.63 44.716H193.915L194.054 47.661H193.388L192.83 44.716L193.465 45.274H185.064L185.731 44.716L185.157 47.661H184.506ZM193.229 56V55.535L194.763 55.3645H195.027L196.701 55.535V56H193.229ZM194.36 56L198.142 44.623H199.01L202.854 56H201.459L198.034 45.553H198.359L198.297 45.77L195.011 56H194.36ZM196.034 52.156L196.081 51.66H200.808L200.855 52.156H196.034ZM199.537 56V55.535L201.599 55.3645H202.048L204.079 55.535V56H199.537ZM204.559 56L204.574 55.535L206.698 55.349H206.884V56H204.559ZM206.155 56C206.186 54.295 206.186 52.5435 206.186 50.916V49.9395C206.186 48.188 206.186 46.4365 206.155 44.716H207.597C207.566 46.452 207.566 48.188 207.566 50.1565V51.0555C207.566 52.5435 207.566 54.2795 207.597 56H206.155ZM206.884 56V55.473H212.293L211.658 55.8605L212.2 52.993H212.867L212.758 56H206.884ZM204.559 45.1965V44.716H209.24V45.1965L207.054 45.367H206.698L204.559 45.1965ZM223.637 56.2635C220.289 56.2635 217.964 54.0315 217.964 50.389C217.964 46.762 220.397 44.468 223.637 44.468C224.892 44.468 225.838 44.7315 226.845 45.3205L226.876 47.816H226.179L225.667 45.119L226.442 45.3825V45.925C225.574 45.274 224.83 45.0105 223.838 45.0105C221.265 45.0105 219.436 46.9325 219.436 50.3735C219.436 53.83 221.265 55.721 223.776 55.721C224.768 55.721 225.652 55.473 226.535 54.822V55.3335L225.776 55.5505L226.303 52.9155H227L226.969 55.3955C225.931 56.0155 224.892 56.2635 223.637 56.2635ZM228.309 56L228.324 55.535L230.448 55.349H230.634V56H228.309ZM229.905 56C229.936 54.295 229.936 52.5435 229.936 50.916V49.9395C229.936 48.188 229.936 46.4365 229.905 44.716H231.347C231.316 46.452 231.316 48.188 231.316 50.1565V51.0555C231.316 52.5435 231.316 54.2795 231.347 56H229.905ZM230.634 56V55.473H236.043L235.408 55.8605L235.95 52.993H236.617L236.508 56H230.634ZM228.309 45.1965V44.716H232.99V45.1965L230.804 45.367H230.448L228.309 45.1965ZM237.52 56V55.535L239.659 55.349H240L242.154 55.535V56H237.52ZM239.116 56C239.147 54.295 239.147 52.5435 239.147 50.792V49.9395C239.147 48.188 239.147 46.452 239.116 44.716H240.558C240.527 46.4365 240.527 48.188 240.527 49.9395V50.792C240.527 52.5435 240.527 54.2795 240.558 56H239.116ZM237.52 45.1965V44.716H242.154V45.1965L240 45.367H239.659L237.52 45.1965ZM243.368 56V55.535L245.011 55.349H245.336L247.336 55.535V56H243.368ZM244.856 56V45.088H245.398L245.46 51.0555V56H244.856ZM250.436 45.1965V44.716H254.404V45.1965L252.776 45.367H252.451L250.436 45.1965ZM252.234 56.1085L245.259 45.8785L245.228 45.8475L244.856 45.2895L243.337 45.1965V44.716H246.08L252.621 54.419L252.342 54.512L252.327 49.8775V44.716H252.9V56.1085H252.234ZM255.442 56V55.535L257.581 55.349H257.922L260.077 55.535V56H255.442ZM257.039 56C257.07 54.295 257.07 52.5435 257.07 50.792V49.9395C257.07 48.188 257.07 46.452 257.039 44.716H258.48C258.449 46.4365 258.449 48.188 258.449 49.9395V50.792C258.449 52.5435 258.449 54.2795 258.48 56H257.039ZM255.442 45.1965V44.716H260.077V45.1965L257.922 45.367H257.581L255.442 45.1965ZM266.877 56.2635C263.529 56.2635 261.204 54.0315 261.204 50.389C261.204 46.762 263.637 44.468 266.877 44.468C268.132 44.468 269.078 44.7315 270.085 45.3205L270.116 47.816H269.419L268.907 45.119L269.682 45.3825V45.925C268.814 45.274 268.07 45.0105 267.078 45.0105C264.505 45.0105 262.676 46.9325 262.676 50.3735C262.676 53.83 264.505 55.721 267.016 55.721C268.008 55.721 268.892 55.473 269.775 54.822V55.3335L269.016 55.5505L269.543 52.9155H270.24L270.209 55.3955C269.171 56.0155 268.132 56.2635 266.877 56.2635Z" fill="#333333"/>
<path d="M71.581 13.149H89.996L91.968 10.481C91.968 10.481 94.23 12.279 95.535 13.526C95.477 13.845 95.158 13.99 94.723 13.99H71.813L71.581 13.149ZM69.812 33.971H91.939L93.853 31.187C93.853 31.187 96.057 33.101 97.275 34.348C97.188 34.667 96.898 34.812 96.463 34.812H70.044L69.812 33.971ZM80.484 13.149H84.051C82.978 19.036 80.89 28.867 79.469 34.319H75.902C77.381 28.78 79.469 18.891 80.484 13.149ZM72.973 21.82H89.648V22.661H73.234L72.973 21.82ZM87.531 21.82H87.241L88.894 20.051L92.171 22.574C91.968 22.806 91.591 23.038 90.982 23.183V34.406H87.531V21.82ZM108.846 19.123C111.079 28.055 118.01 31.477 126.594 33.014L126.536 33.333C124.912 33.652 123.781 34.754 123.23 36.465C115.226 33.971 110.238 29.621 108.411 19.355L108.846 19.123ZM104.003 12.424H119.779L121.722 9.959C121.722 9.959 123.926 11.612 125.26 12.772C125.173 13.091 124.854 13.236 124.419 13.236H104.003V12.424ZM103.017 12.424V12.134V10.8L106.99 12.424H106.468V19.355C106.468 24.749 105.946 31.999 99.073 36.552L98.783 36.32C102.553 31.332 103.017 25.068 103.017 19.355V12.424ZM118.416 19.123H118.039L120.127 17.122L123.491 20.196C123.259 20.544 122.969 20.631 122.215 20.718C119.402 28.49 113.863 34.203 102.582 36.407L102.408 36.059C111.253 32.898 116.473 26.866 118.416 19.123ZM104.206 19.123H119.808V19.964H104.206V19.123ZM139.673 12.685H143.037V33.101H139.673V12.685ZM130.016 12.54V11.061L133.67 12.54H150.693V13.381H133.38V34.812C133.38 35.218 132.046 36.059 130.567 36.059H130.016V12.54ZM149.591 12.54H149.301L150.954 10.713L154.231 13.323C154.028 13.584 153.622 13.787 153.042 13.932V34.725C153.013 34.986 151.389 35.769 150.113 35.769H149.591V12.54ZM132.017 22.4H150.867V23.212H132.017V22.4ZM132.017 32.608H150.867V33.42H132.017V32.608ZM162.902 24.343H174.299L175.749 22.545C175.749 22.545 177.431 23.792 178.475 24.691C178.417 25.01 178.098 25.155 177.692 25.155H163.134L162.902 24.343ZM170.703 12.743H176.242L178.04 10.51C178.04 10.51 180.07 12.018 181.317 13.091C181.23 13.41 180.94 13.555 180.534 13.555H170.703V12.743ZM171.863 25.996C179.867 27.156 178.185 32.637 175.401 31.013C174.821 29.36 173.023 27.359 171.602 26.199L171.863 25.996ZM164.294 19.094C170.094 20.921 167.368 25.068 165.251 23.125C165.251 21.82 164.613 20.254 164.004 19.268L164.294 19.094ZM156.899 16.658H178.649L180.592 14.251C180.592 14.251 182.796 15.875 184.159 17.035C184.072 17.354 183.724 17.499 183.318 17.499H157.131L156.899 16.658ZM160.93 33.565H180.128V34.406H160.93V33.565ZM159.016 18.862L163.192 19.268C163.134 19.616 162.931 19.906 162.206 20.022V35.595C162.206 35.914 160.814 36.552 159.625 36.552H159.016V18.862ZM178.794 18.891L183.115 19.297C183.057 19.703 182.825 19.993 182.042 20.109V35.595C182.042 35.885 180.65 36.552 179.403 36.552H178.794V18.891ZM168.963 9.408L173.4 9.785C173.342 10.162 173.11 10.452 172.385 10.568V17.151H168.963V9.408ZM161.771 10.829L165.889 11.177C165.831 11.554 165.628 11.815 164.932 11.902V17.093H161.771V10.829ZM168.876 18.311L172.936 18.717C172.878 19.123 172.617 19.413 171.863 19.529V31.912C171.863 32.173 170.558 32.724 169.427 32.724H168.876V18.311ZM167.832 24.401H171.515C169.862 27.765 166.44 30.433 162.902 31.999L162.67 31.651C164.99 29.795 167.049 26.895 167.832 24.401ZM174.415 18.862L177.837 20.341C177.75 20.631 177.489 20.776 176.764 20.689C175.923 21.472 174.125 22.806 173.023 23.676L172.733 23.415C173.284 22.11 174.038 19.993 174.415 18.862ZM205.996 10.104L210.375 10.539C210.288 10.945 210.085 11.264 209.302 11.38V35.363C209.302 35.711 207.881 36.494 206.634 36.494H205.996V10.104ZM199.239 12.424C207.359 13.613 204.72 19.587 201.733 17.412C201.472 15.73 200.254 13.816 199.007 12.656L199.239 12.424ZM198.688 19.616C206.895 20.486 204.314 26.518 201.269 24.43C200.95 22.777 199.674 20.921 198.456 19.819L198.688 19.616ZM186.131 18.485H194.483L196.049 16.252C196.049 16.252 197.818 17.789 198.833 18.833C198.775 19.152 198.456 19.297 198.05 19.297H186.363L186.131 18.485ZM194.802 9.466L198.543 12.714C198.224 13.004 197.586 13.091 196.658 12.772C194.019 13.497 189.785 14.193 186.044 14.367L185.957 14.019C189.118 12.917 192.917 10.916 194.802 9.466ZM190.481 18.601H193.961V19.065C192.598 23.908 189.756 27.968 185.841 31.013L185.522 30.694C187.929 27.475 189.611 22.806 190.481 18.601ZM190.713 13.41L194.048 12.076V35.653C194.019 35.856 192.946 36.61 191.322 36.61H190.713V13.41ZM193.816 20.834C200.863 23.038 198.166 27.968 195.643 25.88C195.44 24.227 194.396 22.313 193.555 21.008L193.816 20.834ZM196.368 28.809L209.534 26.315L210.926 23.618C210.926 23.618 212.666 24.952 213.71 25.88C213.71 26.17 213.449 26.402 213.101 26.46L196.745 29.563L196.368 28.809ZM224.962 17.151H234.358L236.156 14.918C236.156 14.918 238.157 16.368 239.433 17.499C239.346 17.818 239.027 17.963 238.621 17.963H224.527L224.962 17.151ZM221.163 22.255H235.779L237.635 19.935C237.635 19.935 239.723 21.53 240.97 22.632C240.883 22.951 240.593 23.096 240.158 23.096H221.395L221.163 22.255ZM225.629 12.888L229.921 14.338C229.805 14.715 229.428 14.947 228.761 14.889C226.992 18.079 224.498 20.225 221.83 21.559L221.54 21.269C223.164 19.326 224.817 16.194 225.629 12.888ZM230.646 24.749C241.405 25.851 239.897 33.014 236.272 31.245C235.199 29.012 232.589 26.46 230.443 24.981L230.646 24.749ZM228.616 17.238H232.183C232.009 24.923 231.922 29.418 221.25 32.086L220.989 31.68C228.906 28.49 228.587 24.169 228.616 17.238ZM216.697 11.699V10.249L220.583 11.699H220.177V35.798C220.177 36.03 219.104 36.726 217.335 36.726H216.697V11.699ZM219.017 11.699H235.837L237.722 9.408C237.722 9.408 239.868 10.945 241.202 12.047C241.115 12.366 240.825 12.511 240.39 12.511H219.017V11.699ZM218.959 33.652H236.649L238.679 31.129C238.679 31.129 240.941 32.84 242.333 34.029C242.246 34.348 241.927 34.493 241.492 34.493H218.959V33.652ZM255.296 13.642H268.114V14.454H255.296V13.642ZM259.791 9.466L264.054 9.814C264.025 10.191 263.793 10.452 263.097 10.568V14.048H259.791V9.466ZM267.215 13.642H266.896L268.549 11.96L271.449 14.715C271.217 14.976 270.927 15.034 270.318 15.063C269.448 15.701 267.911 16.629 266.838 17.122L266.548 16.948C266.78 16.078 267.099 14.512 267.215 13.642ZM254.6 18.543H264.46L266.084 16.397C266.084 16.397 267.94 17.876 269.071 18.891C268.984 19.21 268.665 19.355 268.259 19.355H254.832L254.6 18.543ZM253.324 22.951H266.432L268.114 20.66C268.114 20.66 270.028 22.226 271.159 23.299C271.101 23.618 270.782 23.763 270.376 23.763H253.556L253.324 22.951ZM245.001 11.496V10.162L248.51 11.496H248.104V35.624C248.104 35.856 247.147 36.639 245.581 36.639H245.001V11.496ZM246.538 11.496H251.99V12.308H246.538V11.496ZM250.453 11.496H250.105L251.758 9.872L254.832 12.743C254.629 13.033 254.223 13.12 253.556 13.149C252.657 14.86 251.062 17.818 249.728 19.558C252.396 21.472 253.556 24.14 253.556 26.402C253.556 29.186 252.599 30.752 249.641 30.81C249.641 29.969 249.525 28.751 249.293 28.374C249.09 28.084 248.713 27.823 248.162 27.678V27.33C248.568 27.33 249.235 27.33 249.496 27.33C249.786 27.33 249.931 27.301 250.105 27.156C250.424 26.953 250.598 26.431 250.598 25.59C250.598 23.618 250.192 21.472 249.003 19.616C249.525 17.557 250.192 13.613 250.453 11.496ZM255.296 11.583H255.731C257.007 14.599 256.485 16.861 255.383 17.76C254.6 18.369 253.295 18.224 252.86 17.238C252.512 16.31 253.034 15.498 253.875 15.034C254.629 14.454 255.441 12.975 255.296 11.583ZM262.372 23.183H265.533C265.533 23.531 265.533 23.937 265.533 24.169V32.289C265.533 32.637 265.62 32.753 266.142 32.753H267.331C267.824 32.753 268.23 32.753 268.433 32.753C268.694 32.753 268.781 32.695 268.955 32.405C269.216 31.912 269.651 30.317 270.086 28.606H270.434L270.521 32.579C271.275 32.927 271.42 33.333 271.42 33.913C271.42 35.16 270.405 35.856 267.012 35.856H265.156C262.778 35.856 262.372 35.218 262.372 33.159V23.183ZM256.891 23.212H260.342C260.081 30.201 257.935 34.435 250.018 36.581L249.873 36.204C255.76 33.217 256.833 29.186 256.891 23.212Z" fill="#111111"/>
<g clip-path="url(#clip0_128_385)">
<path d="M45.4356 14.7441C42.445 11.8178 38.5863 10 35.3808 10C32.9831 10 30.4222 11.2503 28.1792 13.5115C27.3971 14.3008 26.2799 14.753 25.1025 14.753C23.9252 14.753 22.7994 14.3008 22.0259 13.5115C19.7829 11.2503 17.2306 10 14.8243 10C11.6102 10 7.76013 11.8178 4.76946 14.7441C1.3577 18.0783 -0.35248 22.1929 0.060026 26.0414C0.567064 30.7412 3.40304 38.6688 7.107 45.7628C8.95468 49.2921 10.8367 52.2804 12.5641 54.4175C14.9704 57.3881 16.5259 58.0089 17.411 58.0089C17.7806 58.0089 18.1243 57.9025 18.4337 57.6985C19.3275 57.0866 20.2728 55.721 21.3298 53.513C21.9744 52.1652 23.4611 51.2873 25.1025 51.2873C26.744 51.2873 28.2393 52.1652 28.8753 53.513C29.9237 55.721 30.869 57.0955 31.7714 57.6985C32.0808 57.9025 32.4245 58.0089 32.7941 58.0089C33.6792 58.0089 35.2347 57.3881 37.641 54.4175C39.3684 52.2893 41.2504 49.2921 43.0981 45.7628C46.8021 38.6688 49.638 30.7412 50.1451 26.0414C50.5576 22.1929 48.8474 18.0783 45.4356 14.753V14.7441ZM47.2575 25.7931C46.7849 30.1648 43.9919 37.9239 40.4684 44.6721C38.698 48.0595 36.9105 50.906 35.2863 52.9012C34.255 54.1692 33.5159 54.8166 33.0691 55.1447C32.7339 54.7101 32.2269 53.9121 31.5479 52.4933C30.4479 50.1877 27.9213 48.6979 25.1025 48.6979C22.2838 48.6979 19.7572 50.1877 18.6571 52.4933C17.9782 53.9121 17.4712 54.7101 17.136 55.1447C16.6892 54.8166 15.9415 54.1692 14.9188 52.9012C13.2946 50.8971 11.5071 48.0506 9.73672 44.6721C6.21323 37.9239 3.42023 30.1648 2.94756 25.7931C2.6124 22.6717 4.05617 19.2754 6.91793 16.4822C9.3414 14.1145 12.4438 12.5805 14.8329 12.5805C16.3626 12.5805 18.1931 13.5381 19.8603 15.223C21.1923 16.562 23.1002 17.3335 25.1111 17.3335C27.1221 17.3335 29.0385 16.562 30.362 15.223C32.0206 13.547 33.8511 12.5805 35.3894 12.5805C37.7699 12.5805 40.8809 14.1145 43.3044 16.4822C46.1661 19.2754 47.6099 22.6717 47.2747 25.7931H47.2575Z" fill="#EDB0BF"/>
<path d="M53.2303 14.7441C50.2397 11.8178 46.381 10 43.1755 10C40.7778 10 38.2169 11.2503 35.9739 13.5115C35.1918 14.3008 34.0746 14.753 32.8972 14.753C31.7199 14.753 30.5941 14.3008 29.8206 13.5115C27.5776 11.2503 25.0253 10 22.619 10C19.4049 10 15.5548 11.8178 12.5642 14.7441C9.16099 18.0783 7.44222 22.1929 7.85472 26.0325C8.36176 30.7323 11.1977 38.6599 14.9017 45.7539C16.7494 49.2832 18.6314 52.2716 20.3588 54.4086C22.7651 57.3793 24.3206 58 25.2057 58C25.5753 58 25.919 57.8936 26.2284 57.6896C27.1222 57.0778 28.0675 55.7122 29.1245 53.5042C29.7691 52.1563 31.2558 51.2784 32.8972 51.2784C34.5387 51.2784 36.034 52.1563 36.67 53.5042C37.7184 55.7122 38.6637 57.0866 39.5661 57.6896C39.8755 57.8936 40.2192 58 40.5888 58C41.4739 58 43.0294 57.3793 45.4357 54.4086C47.1631 52.2804 49.0451 49.2832 50.8928 45.7539C54.5968 38.6599 57.4327 30.7323 57.9398 26.0325C58.3523 22.184 56.6421 18.0695 53.2303 14.7441ZM55.0522 25.7931C54.5796 30.1648 51.7866 37.9239 48.2631 44.6721C46.4927 48.0595 44.7052 50.906 43.081 52.9012C42.0497 54.1692 41.3106 54.8166 40.8638 55.1447C40.5286 54.7101 40.0216 53.9121 39.3426 52.4933C38.2426 50.1877 35.716 48.6979 32.8972 48.6979C30.0785 48.6979 27.5519 50.1877 26.4518 52.4933C25.7729 53.9121 25.2659 54.7101 24.9307 55.1447C24.4839 54.8166 23.7362 54.1692 22.7135 52.9012C21.0893 50.8971 19.3018 48.0506 17.5314 44.6721C14.0079 37.9239 11.2149 30.1648 10.7423 25.7931C10.4071 22.6717 11.8509 19.2754 14.7126 16.4822C17.1361 14.1145 20.2385 12.5805 22.6276 12.5805C24.1573 12.5805 25.9878 13.5381 27.655 15.223C28.987 16.562 30.8949 17.3335 32.9058 17.3335C34.9168 17.3335 36.8332 16.562 38.1567 15.223C39.8153 13.547 41.6458 12.5805 43.1841 12.5805C45.5646 12.5805 48.6756 14.1145 51.0991 16.4822C53.9608 19.2754 55.4046 22.6717 55.0694 25.7931H55.0522Z" fill="#C0E5E8"/>
</g>
<defs>
<clipPath id="clip0_128_385">
<rect width="58" height="48" fill="white" transform="translate(0 10)"/>
</clipPath>
</defs>
</svg>
