<svg width="249" height="60" viewBox="0 0 249 60" fill="none" xmlns="http://www.w3.org/2000/svg">
<g clip-path="url(#clip0_127_318)">
<path d="M71.4092 55.2514C68.5892 55.2514 66.6692 53.0614 66.6692 49.5664C66.6692 46.0864 68.6492 43.9114 71.5442 43.9114C73.0292 43.9114 73.9742 44.6014 74.5592 45.2314L74.0342 45.8164C73.4792 45.2314 72.7292 44.7214 71.5592 44.7214C69.1292 44.7214 67.5992 46.5814 67.5992 49.5514C67.5992 52.5214 69.0242 54.4414 71.4992 54.4414C72.4292 54.4414 73.3292 54.1414 73.8092 53.6614V50.3764H71.2742V49.6114H74.6942V54.0064C73.9892 54.7264 72.8492 55.2514 71.4092 55.2514ZM81.292 55.2514C78.637 55.2514 76.762 53.0164 76.762 49.5514C76.762 46.0714 78.637 43.9114 81.292 43.9114C83.947 43.9114 85.837 46.0864 85.837 49.5514C85.837 53.0164 83.947 55.2514 81.292 55.2514ZM81.292 54.4414C83.452 54.4414 84.907 52.5214 84.907 49.5514C84.907 46.5814 83.452 44.7214 81.292 44.7214C79.132 44.7214 77.692 46.5814 77.692 49.5514C77.692 52.5214 79.132 54.4414 81.292 54.4414ZM90.2799 55.0414V44.8864H86.8449V44.1064H94.6299V44.8864H91.1949V55.0414H90.2799ZM94.5558 55.0414L98.3808 44.1064H99.3108L103.136 55.0414H102.191L100.061 48.6814C99.6258 47.3914 99.2658 46.2364 98.8758 44.9164H98.8158C98.4258 46.2514 98.0508 47.3914 97.6158 48.6814L95.4708 55.0414H94.5558ZM96.3558 51.3814V50.6464H101.291V51.3814H96.3558ZM104.859 55.0414V44.1064H105.789L110.259 51.6364L111.474 53.8264H111.549C111.489 52.7614 111.414 51.6664 111.414 50.5864V44.1064H112.284V55.0414H111.339L106.884 47.5264L105.654 45.3214H105.594C105.639 46.3864 105.699 47.4064 105.699 48.5014V55.0414H104.859ZM115.464 55.0414V44.1064H118.029C121.404 44.1064 123.039 46.1914 123.039 49.5514C123.039 52.8964 121.404 55.0414 118.059 55.0414H115.464ZM116.349 54.2914H117.939C120.819 54.2914 122.109 52.3864 122.109 49.5514C122.109 46.7014 120.819 44.8714 117.939 44.8714H116.349V54.2914ZM123.881 55.0414L127.706 44.1064H128.636L132.462 55.0414H131.517L129.387 48.6814C128.952 47.3914 128.592 46.2364 128.202 44.9164H128.141C127.751 46.2514 127.376 47.3914 126.941 48.6814L124.796 55.0414H123.881ZM125.682 51.3814V50.6464H130.616V51.3814H125.682ZM137.496 55.0414V44.1064H140.061C143.436 44.1064 145.071 46.1914 145.071 49.5514C145.071 52.8964 143.436 55.0414 140.091 55.0414H137.496ZM138.381 54.2914H139.971C142.851 54.2914 144.141 52.3864 144.141 49.5514C144.141 46.7014 142.851 44.8714 139.971 44.8714H138.381V54.2914ZM147.575 55.0414V44.1064H153.62V44.8864H148.46V48.8614H152.795V49.6414H148.46V54.2764H153.785V55.0414H147.575ZM156.173 55.0414V44.1064H157.103L161.573 51.6364L162.788 53.8264H162.863C162.803 52.7614 162.728 51.6664 162.728 50.5864V44.1064H163.598V55.0414H162.653L158.198 47.5264L156.968 45.3214H156.908C156.953 46.3864 157.013 47.4064 157.013 48.5014V55.0414H156.173ZM169.103 55.0414V44.8864H165.668V44.1064H173.453V44.8864H170.018V55.0414H169.103ZM173.379 55.0414L177.204 44.1064H178.134L181.959 55.0414H181.014L178.884 48.6814C178.449 47.3914 178.089 46.2364 177.699 44.9164H177.639C177.249 46.2514 176.874 47.3914 176.439 48.6814L174.294 55.0414H173.379ZM175.179 51.3814V50.6464H180.114V51.3814H175.179ZM183.682 55.0414V44.1064H184.567V54.2764H189.547V55.0414H183.682ZM198.76 55.2514C196.045 55.2514 194.14 53.0614 194.14 49.5664C194.14 46.0864 196.075 43.9114 198.85 43.9114C200.14 43.9114 201.13 44.5564 201.715 45.2314L201.205 45.8164C200.62 45.1714 199.84 44.7214 198.85 44.7214C196.525 44.7214 195.07 46.5814 195.07 49.5514C195.07 52.5214 196.51 54.4414 198.805 54.4414C199.9 54.4414 200.725 53.9764 201.505 53.1064L202.03 53.6914C201.175 54.6664 200.17 55.2514 198.76 55.2514ZM204.234 55.0414V44.1064H205.119V54.2764H210.099V55.0414H204.234ZM212.071 55.0414V44.1064H212.956V55.0414H212.071ZM216.158 55.0414V44.1064H217.088L221.558 51.6364L222.773 53.8264H222.848C222.788 52.7614 222.713 51.6664 222.713 50.5864V44.1064H223.583V55.0414H222.638L218.183 47.5264L216.953 45.3214H216.893C216.938 46.3864 216.998 47.4064 216.998 48.5014V55.0414H216.158ZM226.763 55.0414V44.1064H227.648V55.0414H226.763ZM234.78 55.2514C232.065 55.2514 230.16 53.0614 230.16 49.5664C230.16 46.0864 232.095 43.9114 234.87 43.9114C236.16 43.9114 237.15 44.5564 237.735 45.2314L237.225 45.8164C236.64 45.1714 235.86 44.7214 234.87 44.7214C232.545 44.7214 231.09 46.5814 231.09 49.5514C231.09 52.5214 232.53 54.4414 234.825 54.4414C235.92 54.4414 236.745 53.9764 237.525 53.1064L238.05 53.6914C237.195 54.6664 236.19 55.2514 234.78 55.2514Z" fill="white"/>
<path d="M64.6696 11.7295H81.5215L83.3262 9.28795C83.3262 9.28795 85.3962 10.9333 86.5904 12.0745C86.5373 12.3664 86.2454 12.4991 85.8473 12.4991H64.8819L64.6696 11.7295ZM63.0508 30.7841H83.2996L85.0512 28.2364C85.0512 28.2364 87.0681 29.9879 88.1827 31.1291C88.1031 31.421 87.8377 31.5537 87.4396 31.5537H63.2631L63.0508 30.7841ZM72.8169 11.7295H76.0812C75.0992 17.1168 73.1885 26.1133 71.8881 31.1026H68.6239C69.9773 26.0337 71.8881 16.9841 72.8169 11.7295ZM65.9435 19.6645H81.2031V20.4341H66.1823L65.9435 19.6645ZM79.2658 19.6645H79.0004L80.5131 18.0456L83.5119 20.3545C83.3262 20.5668 82.9812 20.7791 82.4239 20.9118V31.1822H79.2658V19.6645ZM98.7715 17.1964C100.815 25.3702 107.158 28.5018 115.013 29.9083L114.96 30.2003C113.474 30.4922 112.439 31.5006 111.935 33.0664C104.61 30.7841 100.045 26.8033 98.3735 17.4087L98.7715 17.1964ZM94.3396 11.066H108.777L110.555 8.81026C110.555 8.81026 112.572 10.323 113.792 11.3845C113.713 11.6764 113.421 11.8091 113.023 11.8091H94.3396V11.066ZM93.4373 11.066V10.8006V9.57988L97.0731 11.066H96.5954V17.4087C96.5954 22.3449 96.1177 28.9795 89.8281 33.146L89.5627 32.9337C93.0127 28.3691 93.4373 22.6368 93.4373 17.4087V11.066ZM107.529 17.1964H107.184L109.095 15.3652L112.173 18.1783C111.961 18.4968 111.696 18.5764 111.006 18.656C108.432 25.7683 103.363 30.9964 93.0392 33.0133L92.88 32.6949C100.974 29.8022 105.751 24.2822 107.529 17.1964ZM94.5254 17.1964H108.803V17.966H94.5254V17.1964ZM126.982 11.3049H130.06V29.9879H126.982V11.3049ZM118.145 11.1722V9.81872L121.488 11.1722H137.067V11.9418H121.223V31.5537C121.223 31.9253 120.002 32.6949 118.649 32.6949H118.145V11.1722ZM136.058 11.1722H135.793L137.305 9.50026L140.304 11.8887C140.118 12.1276 139.747 12.3133 139.216 12.446V31.4741C139.19 31.7129 137.703 32.4295 136.536 32.4295H136.058V11.1722ZM119.976 20.1952H137.226V20.9383H119.976V20.1952ZM119.976 29.5368H137.226V30.2799H119.976V29.5368ZM148.239 21.9733H158.669L159.996 20.3279C159.996 20.3279 161.535 21.4691 162.49 22.2918C162.437 22.5837 162.145 22.7164 161.774 22.7164H148.452L148.239 21.9733ZM155.378 11.358H160.447L162.092 9.31449C162.092 9.31449 163.95 10.6945 165.091 11.6764C165.012 11.9683 164.746 12.101 164.375 12.101H155.378V11.358ZM156.44 23.486C163.764 24.5476 162.225 29.5633 159.677 28.0772C159.147 26.5645 157.501 24.7333 156.201 23.6718L156.44 23.486ZM149.513 17.1699C154.821 18.8418 152.326 22.6368 150.389 20.8587C150.389 19.6645 149.805 18.2314 149.248 17.3291L149.513 17.1699ZM142.746 14.9406H162.65L164.428 12.7379C164.428 12.7379 166.445 14.2241 167.692 15.2856C167.612 15.5776 167.294 15.7102 166.922 15.7102H142.958L142.746 14.9406ZM146.435 30.4126H164.003V31.1822H146.435V30.4126ZM144.683 16.9576L148.505 17.3291C148.452 17.6476 148.266 17.9129 147.602 18.0191V32.2702C147.602 32.5622 146.328 33.146 145.24 33.146H144.683V16.9576ZM162.782 16.9841L166.737 17.3556C166.683 17.7272 166.471 17.9926 165.755 18.0987V32.2702C165.755 32.5356 164.481 33.146 163.34 33.146H162.782V16.9841ZM153.786 8.30603L157.846 8.65103C157.793 8.99603 157.581 9.26141 156.917 9.36757V15.3918H153.786V8.30603ZM147.204 9.60641L150.973 9.92488C150.92 10.2699 150.734 10.5087 150.097 10.5883V15.3387H147.204V9.60641ZM153.706 16.4533L157.422 16.8249C157.368 17.1964 157.13 17.4618 156.44 17.5679V28.8999C156.44 29.1387 155.245 29.6429 154.21 29.6429H153.706V16.4533ZM152.751 22.0264H156.121C154.608 25.1049 151.477 27.5464 148.239 28.9795L148.027 28.661C150.15 26.9626 152.034 24.3087 152.751 22.0264ZM158.775 16.9576L161.907 18.311C161.827 18.5764 161.588 18.7091 160.925 18.6295C160.155 19.346 158.51 20.5668 157.501 21.3629L157.236 21.1241C157.74 19.9299 158.43 17.9926 158.775 16.9576ZM187.675 8.94295L191.683 9.34103C191.603 9.71257 191.417 10.0045 190.701 10.1106V32.0579C190.701 32.3764 189.4 33.0929 188.259 33.0929H187.675V8.94295ZM181.492 11.066C188.923 12.1541 186.508 17.621 183.774 15.6306C183.535 14.0914 182.421 12.3399 181.28 11.2783L181.492 11.066ZM180.988 17.6476C188.498 18.4437 186.136 23.9637 183.35 22.0529C183.058 20.5402 181.89 18.8418 180.775 17.8333L180.988 17.6476ZM169.497 16.6126H177.14L178.573 14.5691C178.573 14.5691 180.192 15.9756 181.12 16.931C181.067 17.2229 180.775 17.3556 180.404 17.3556H169.709L169.497 16.6126ZM177.432 8.35911L180.855 11.3314C180.563 11.5968 179.979 11.6764 179.13 11.3845C176.715 12.0479 172.84 12.6849 169.417 12.8441L169.337 12.5256C172.23 11.5172 175.707 9.68603 177.432 8.35911ZM173.477 16.7187H176.662V17.1433C175.415 21.5752 172.814 25.2906 169.231 28.0772L168.939 27.7852C171.142 24.8395 172.681 20.5668 173.477 16.7187ZM173.69 11.9683L176.742 10.7476V32.3233C176.715 32.5091 175.733 33.1991 174.247 33.1991H173.69V11.9683ZM176.529 18.7622C182.978 20.7791 180.51 25.2906 178.201 23.3799C178.015 21.8672 177.06 20.1156 176.29 18.9214L176.529 18.7622ZM178.865 26.0602L190.913 23.7779L192.187 21.3099C192.187 21.3099 193.779 22.5306 194.735 23.3799C194.735 23.6453 194.496 23.8576 194.177 23.9106L179.21 26.7502L178.865 26.0602ZM205.032 15.3918H213.63L215.275 13.3483C215.275 13.3483 217.107 14.6752 218.274 15.7102C218.195 16.0022 217.903 16.1349 217.531 16.1349H204.633L205.032 15.3918ZM201.555 20.0626H214.93L216.629 17.9395C216.629 17.9395 218.54 19.3991 219.681 20.4076C219.601 20.6995 219.336 20.8322 218.938 20.8322H201.767L201.555 20.0626ZM205.642 11.4906L209.57 12.8176C209.463 13.1626 209.118 13.3749 208.508 13.3218C206.889 16.241 204.607 18.2049 202.165 19.4256L201.9 19.1602C203.386 17.3822 204.899 14.516 205.642 11.4906ZM210.233 22.3449C220.079 23.3533 218.699 29.9083 215.382 28.2895C214.4 26.246 212.011 23.9106 210.047 22.5572L210.233 22.3449ZM208.375 15.4714H211.64C211.48 22.5041 211.401 26.6176 201.635 29.0591L201.396 28.6876C208.641 25.7683 208.349 21.8141 208.375 15.4714ZM197.468 10.4026V9.07565L201.024 10.4026H200.653V32.456C200.653 32.6683 199.671 33.3052 198.052 33.3052H197.468V10.4026ZM199.591 10.4026H214.983L216.708 8.30603C216.708 8.30603 218.672 9.71257 219.893 10.721C219.813 11.013 219.548 11.1456 219.15 11.1456H199.591V10.4026ZM199.538 30.4922H215.727L217.584 28.1833C217.584 28.1833 219.654 29.7491 220.928 30.8372C220.848 31.1291 220.557 31.2618 220.158 31.2618H199.538V30.4922ZM232.791 12.1806H244.521V12.9237H232.791V12.1806ZM236.904 8.35911L240.805 8.67757C240.779 9.02257 240.567 9.26141 239.93 9.36757V12.5522H236.904V8.35911ZM243.698 12.1806H243.406L244.919 10.6414L247.573 13.1626C247.36 13.4014 247.095 13.4545 246.538 13.481C245.742 14.0649 244.335 14.9141 243.353 15.3652L243.088 15.206C243.3 14.4099 243.592 12.9768 243.698 12.1806ZM232.154 16.6656H241.177L242.663 14.7018C242.663 14.7018 244.362 16.0552 245.397 16.9841C245.317 17.276 245.025 17.4087 244.653 17.4087H232.366L232.154 16.6656ZM230.986 20.6995H242.982L244.521 18.6029C244.521 18.6029 246.272 20.036 247.307 21.0179C247.254 21.3099 246.962 21.4426 246.591 21.4426H231.198L230.986 20.6995ZM223.37 10.2168V8.99603L226.581 10.2168H226.209V32.2968C226.209 32.5091 225.333 33.2256 223.9 33.2256H223.37V10.2168ZM224.776 10.2168H229.765V10.9599H224.776V10.2168ZM228.359 10.2168H228.04L229.553 8.73065L232.366 11.358C232.18 11.6233 231.809 11.7029 231.198 11.7295C230.376 13.2952 228.916 16.0022 227.695 17.5945C230.137 19.346 231.198 21.7876 231.198 23.8576C231.198 26.4052 230.323 27.8383 227.616 27.8914C227.616 27.1218 227.51 26.0072 227.297 25.6622C227.112 25.3968 226.767 25.1579 226.262 25.0252V24.7068C226.634 24.7068 227.244 24.7068 227.483 24.7068C227.748 24.7068 227.881 24.6802 228.04 24.5476C228.332 24.3618 228.492 23.8841 228.492 23.1145C228.492 21.3099 228.12 19.346 227.032 17.6476C227.51 15.7633 228.12 12.1541 228.359 10.2168ZM232.791 10.2964H233.189C234.357 13.0564 233.879 15.1264 232.87 15.9491C232.154 16.5064 230.96 16.3737 230.562 15.4714C230.243 14.6222 230.721 13.8791 231.49 13.4545C232.18 12.9237 232.923 11.5702 232.791 10.2964ZM239.266 20.9118H242.159C242.159 21.2303 242.159 21.6018 242.159 21.8141V29.2449C242.159 29.5633 242.238 29.6695 242.716 29.6695H243.804C244.255 29.6695 244.627 29.6695 244.813 29.6695C245.052 29.6695 245.131 29.6164 245.29 29.351C245.529 28.8999 245.927 27.4402 246.325 25.8745H246.644L246.723 29.5103C247.413 29.8287 247.546 30.2002 247.546 30.731C247.546 31.8722 246.617 32.5091 243.512 32.5091H241.814C239.638 32.5091 239.266 31.9252 239.266 30.041V20.9118ZM234.25 20.9383H237.408C237.17 27.3341 235.206 31.2087 227.961 33.1726L227.828 32.8276C233.215 30.0941 234.197 26.4052 234.25 20.9383Z" fill="white"/>
<path d="M43.3866 13.1711C40.5308 10.3768 36.8462 8.64099 33.7853 8.64099C31.4957 8.64099 29.0504 9.83492 26.9085 11.9942C26.1617 12.7478 25.0949 13.1795 23.9707 13.1795C22.8464 13.1795 21.7715 12.7478 21.0329 11.9942C18.891 9.83492 16.4538 8.64099 14.1561 8.64099C11.0869 8.64099 7.41055 10.3768 4.55478 13.1711C1.29692 16.3549 -0.336114 20.2839 0.0577847 23.9588C0.541951 28.4465 3.25 36.0166 6.78688 42.7906C8.55121 46.1607 10.3484 49.0142 11.9978 51.0549C14.2956 53.8915 15.7809 54.4842 16.6261 54.4842C16.979 54.4842 17.3072 54.3827 17.6026 54.1879C18.4561 53.6036 19.3588 52.2997 20.3682 50.1912C20.9836 48.9041 22.4033 48.0658 23.9707 48.0658C25.5381 48.0658 26.966 48.9041 27.5732 50.1912C28.5744 52.2997 29.4771 53.6122 30.3388 54.1879C30.6342 54.3827 30.9624 54.4842 31.3153 54.4842C32.1605 54.4842 33.6458 53.8915 35.9436 51.0549C37.593 49.0227 39.3901 46.1607 41.1545 42.7906C44.6913 36.0166 47.3994 28.4465 47.8836 23.9588C48.2775 20.2839 46.6445 16.3549 43.3866 13.1795V13.1711ZM45.1263 23.7217C44.675 27.8962 42.008 35.3052 38.6433 41.7491C36.953 44.9837 35.2461 47.7018 33.6951 49.6069C32.7103 50.8179 32.0046 51.436 31.5779 51.7493C31.2578 51.3343 30.7737 50.5722 30.1253 49.2175C29.075 47.0158 26.6624 45.5934 23.9707 45.5934C21.279 45.5934 18.8664 47.0158 17.8161 49.2175C17.1677 50.5722 16.6836 51.3343 16.3635 51.7493C15.9368 51.436 15.2229 50.8179 14.2463 49.6069C12.6953 47.6933 10.9885 44.9753 9.29798 41.7491C5.93344 35.3052 3.26641 27.8962 2.81507 23.7217C2.49503 20.7412 3.87367 17.498 6.60635 14.8308C8.9205 12.57 11.8829 11.1051 14.1643 11.1051C15.6249 11.1051 17.3729 12.0196 18.9648 13.6284C20.2368 14.907 22.0587 15.6437 23.9789 15.6437C25.8991 15.6437 27.7291 14.907 28.9929 13.6284C30.5767 12.028 32.3247 11.1051 33.7935 11.1051C36.0667 11.1051 39.0373 12.57 41.3514 14.8308C44.0841 17.498 45.4628 20.7412 45.1427 23.7217H45.1263Z" fill="white"/>
<path d="M50.8298 13.1711C47.974 10.3768 44.2894 8.64099 41.2285 8.64099C38.9389 8.64099 36.4935 9.83492 34.3517 11.9942C33.6049 12.7478 32.5381 13.1795 31.4138 13.1795C30.2896 13.1795 29.2146 12.7478 28.476 11.9942C26.3342 9.83492 23.8969 8.64099 21.5992 8.64099C18.5301 8.64099 14.8537 10.3768 11.9979 13.1711C8.74827 16.3549 7.10703 20.2839 7.50093 23.9503C7.9851 28.4381 10.6932 36.008 14.23 42.7822C15.9944 46.1522 17.7915 49.0058 19.441 51.0465C21.7387 53.8831 23.224 54.4758 24.0693 54.4758C24.4222 54.4758 24.7504 54.3742 25.0458 54.1795C25.8992 53.5952 26.802 52.2912 27.8114 50.1828C28.4268 48.8957 29.8464 48.0574 31.4138 48.0574C32.9812 48.0574 34.4091 48.8957 35.0163 50.1828C36.0175 52.2912 36.9202 53.6036 37.7819 54.1795C38.0773 54.3742 38.4055 54.4758 38.7584 54.4758C39.6037 54.4758 41.089 53.8831 43.3867 51.0465C45.0361 49.0142 46.8333 46.1522 48.5977 42.7822C52.1346 36.008 54.8426 28.4381 55.3268 23.9503C55.7206 20.2753 54.0876 16.3465 50.8298 13.1711ZM52.5694 23.7217C52.1182 27.8962 49.4511 35.3052 46.0866 41.7491C44.3961 44.9837 42.6892 47.7018 41.1382 49.6069C40.1535 50.8179 39.4477 51.436 39.021 51.7493C38.7009 51.3343 38.2168 50.5722 37.5685 49.2175C36.5181 47.0158 34.1055 45.5934 31.4138 45.5934C28.7222 45.5934 26.3095 47.0158 25.2592 49.2175C24.6109 50.5722 24.1267 51.3343 23.8067 51.7493C23.3799 51.436 22.666 50.8179 21.6895 49.6069C20.1385 47.6933 18.4316 44.9753 16.7411 41.7491C13.3766 35.3052 10.7096 27.8962 10.2582 23.7217C9.93818 20.7412 11.3168 17.498 14.0494 14.8308C16.3636 12.57 19.3261 11.1051 21.6074 11.1051C23.0681 11.1051 24.8161 12.0196 26.4081 13.6284C27.6801 14.907 29.5018 15.6437 31.4221 15.6437C33.3423 15.6437 35.1723 14.907 36.436 13.6284C38.0198 12.028 39.7678 11.1051 41.2367 11.1051C43.5098 11.1051 46.4805 12.57 48.7946 14.8308C51.5273 17.498 52.9059 20.7412 52.5858 23.7217H52.5694Z" fill="white"/>
</g>
<defs>
<clipPath id="clip0_127_318">
<rect width="248.077" height="60" fill="white"/>
</clipPath>
</defs>
</svg>
